<svg width="260" height="136" viewBox="0 0 260 136" fill="none" xmlns="http://www.w3.org/2000/svg">
<g clip-path="url(#clip0_363_15739)">
<path d="M15.0692 130.1C15.8103 130.716 16.4279 130.962 17.169 130.962C18.4041 130.962 19.1452 130.223 19.1452 128.498C19.1452 127.143 18.5276 126.28 17.2925 125.788C15.3162 124.925 14.3281 123.693 14.3281 122.092C14.3281 120.367 15.4398 119.135 17.2925 119.135C18.2806 119.135 19.1452 119.381 19.8863 119.751C20.1334 119.874 20.2569 119.997 20.2569 120.367V120.49C20.2569 120.86 20.0098 120.983 19.6393 120.86C18.7747 120.367 18.1571 120.12 17.416 120.12C16.4279 120.12 15.8103 120.736 15.8103 122.215C15.8103 123.447 16.4279 124.309 17.416 124.802C19.7628 125.788 20.6274 126.896 20.6274 128.621C20.6274 130.716 19.5158 131.948 17.2925 131.948C16.4279 131.948 15.5633 131.701 14.8222 131.332C14.5752 131.208 14.5752 130.962 14.5752 130.716V130.469C14.5752 129.976 14.8222 129.853 15.0692 130.1Z" fill="black"/>
<path d="M24.3337 127.389C24.3337 129.976 25.0748 131.085 26.4335 131.085C26.9276 131.085 27.2981 130.962 27.9157 130.715C28.2862 130.592 28.4098 130.715 28.4098 131.085C28.4098 131.331 28.2862 131.454 28.0392 131.578C27.5452 131.824 26.9276 131.824 26.31 131.824C24.0867 131.824 22.8516 130.222 22.8516 127.265C22.8516 124.309 24.0867 122.707 26.1865 122.707C26.8041 122.707 27.4216 122.83 27.9157 122.953C28.1627 123.077 28.2862 123.2 28.2862 123.446C28.2862 123.816 28.0392 123.939 27.6687 123.816C27.1746 123.693 26.6805 123.569 26.1865 123.569C25.0748 123.569 24.3337 124.801 24.3337 127.389Z" fill="black"/>
<path d="M31.6172 131.209V119.505C31.6172 119.135 31.7407 119.012 32.1112 119.012H32.6053C32.8523 119.012 33.0994 119.135 33.0994 119.505V123.94C33.7169 123.324 34.458 122.831 35.1991 122.831C37.0519 122.831 37.6694 123.94 37.6694 126.527V131.332C37.6694 131.701 37.5459 131.825 37.1754 131.825H36.6813C36.4343 131.825 36.1873 131.701 36.1873 131.332V126.773C36.1873 124.309 35.8167 123.693 34.8286 123.693C34.0875 123.693 32.9759 125.049 32.9759 126.404V131.209C32.9759 131.578 32.8523 131.701 32.4818 131.701H32.1112C31.7407 131.701 31.6172 131.578 31.6172 131.209Z" fill="black"/>
<path d="M43.7241 122.83C45.9473 122.83 47.1825 124.555 47.1825 127.389C47.1825 130.222 45.9473 131.947 43.7241 131.947C41.5008 131.947 40.2656 130.222 40.2656 127.389C40.2656 126.033 40.5127 124.924 41.1302 124.062C41.7478 123.323 42.6124 122.83 43.7241 122.83ZM43.7241 131.085C44.9592 131.085 45.7003 129.853 45.7003 127.389C45.7003 124.801 44.9592 123.692 43.7241 123.692C42.4889 123.692 41.7478 124.925 41.7478 127.389C41.7478 129.853 42.4889 131.085 43.7241 131.085Z" fill="black"/>
<path d="M52.7397 122.83C54.963 122.83 56.1981 124.555 56.1981 127.389C56.1981 130.222 54.963 131.947 52.7397 131.947C50.5164 131.947 49.2812 130.222 49.2812 127.389C49.2812 126.033 49.5283 124.924 50.1459 124.062C50.6399 123.323 51.628 122.83 52.7397 122.83ZM52.7397 131.085C53.9748 131.085 54.7159 129.853 54.7159 127.389C54.7159 124.801 53.9748 123.692 52.7397 123.692C51.5045 123.692 50.7634 124.925 50.7634 127.389C50.6399 129.853 51.381 131.085 52.7397 131.085Z" fill="black"/>
<path d="M60.3962 119.505V131.209C60.3962 131.578 60.2727 131.701 59.9022 131.701H59.4081C59.1611 131.701 58.9141 131.578 58.9141 131.209V119.505C58.9141 119.135 59.0376 119.012 59.4081 119.012H59.9022C60.2727 119.012 60.3962 119.135 60.3962 119.505Z" fill="black"/>
<path d="M72.6297 131.701H72.1356C71.7651 131.701 71.6416 131.454 71.7651 131.208L74.9765 119.874C75.1 119.627 75.2235 119.504 75.4705 119.504H76.2116C76.4587 119.504 76.7057 119.627 76.7057 119.874L79.9171 131.208C80.0406 131.578 79.7936 131.701 79.5465 131.701H79.0525C78.8054 131.701 78.5584 131.578 78.5584 131.331L77.6938 128.128H74.1119L73.2473 131.331C73.1237 131.578 72.8767 131.701 72.6297 131.701ZM74.2354 127.142H77.4468L75.8411 120.982L74.2354 127.142Z" fill="black"/>
<path d="M83.6228 127.389C83.6228 129.976 84.3639 131.085 85.7226 131.085C86.2166 131.085 86.5872 130.962 87.2048 130.715C87.5753 130.592 87.6988 130.715 87.6988 131.085C87.6988 131.331 87.5753 131.454 87.3283 131.578C86.8342 131.824 86.2166 131.824 85.5991 131.824C83.3758 131.824 82.1406 130.222 82.1406 127.265C82.1406 124.309 83.3758 122.707 85.4755 122.707C86.0931 122.707 86.7107 122.83 87.2048 122.953C87.4518 123.077 87.5753 123.2 87.5753 123.446C87.5753 123.816 87.3283 123.939 86.9577 123.816C86.4637 123.693 85.9696 123.569 85.4755 123.569C84.2404 123.569 83.6228 124.801 83.6228 127.389Z" fill="black"/>
<path d="M92.2638 119.998H92.6344C92.8814 119.998 93.1284 120.121 93.1284 120.491V123.324H95.2282C95.4752 123.324 95.7223 123.448 95.7223 123.817C95.7223 124.064 95.5987 124.187 95.2282 124.187H93.1284V128.992C93.1284 130.717 93.3755 131.086 94.2401 131.086C94.4871 131.086 94.7341 131.086 94.9812 130.963C95.3517 130.84 95.4752 130.963 95.4752 131.333C95.4752 131.579 95.3517 131.702 95.1047 131.702C94.7341 131.825 94.3636 131.825 93.993 131.825C92.2638 131.825 91.7698 131.086 91.7698 128.992V124.064H90.6581C90.4111 124.064 90.1641 123.94 90.1641 123.571C90.1641 123.324 90.2876 123.201 90.6581 123.201H91.7698V120.368C91.7698 120.244 91.8933 119.998 92.2638 119.998Z" fill="black"/>
<path d="M99.1831 122.955H99.6771C99.9241 122.955 100.171 123.078 100.171 123.448V128.253C100.171 130.47 100.665 131.086 101.53 131.086C102.394 131.086 103.383 129.854 103.383 128.376V123.448C103.383 123.078 103.506 122.955 103.877 122.955H104.371C104.618 122.955 104.865 123.078 104.865 123.448V131.21C104.865 131.579 104.741 131.702 104.371 131.702H104C103.753 131.702 103.506 131.579 103.506 131.21V130.84C103.012 131.456 102.147 131.949 101.283 131.949C99.5536 131.949 98.8125 130.963 98.8125 128.499V123.571C98.8125 123.201 98.936 122.955 99.1831 122.955Z" fill="black"/>
<path d="M112.032 125.664C112.032 124.062 111.662 123.692 110.55 123.692C109.933 123.692 109.192 123.816 108.451 124.185C108.08 124.308 107.956 124.185 107.956 123.816C107.956 123.569 108.08 123.323 108.327 123.323C109.068 123.076 109.809 122.83 110.55 122.83C112.774 122.83 113.515 123.692 113.515 126.033V131.208C113.515 131.577 113.391 131.701 113.021 131.701H112.65C112.403 131.701 112.156 131.577 112.156 131.208V130.715C111.662 131.454 110.797 131.947 109.809 131.947C108.451 131.947 107.586 130.838 107.586 129.36C107.586 127.635 108.821 126.28 111.538 126.28H112.156V125.664H112.032ZM111.415 126.896C109.809 126.896 108.945 127.635 108.945 129.113C108.945 130.345 109.439 130.961 110.056 130.961C111.168 130.961 112.156 129.729 112.156 127.881V126.896H111.415Z" fill="black"/>
<path d="M118.084 119.505V131.209C118.084 131.578 117.96 131.701 117.59 131.701H117.096C116.849 131.701 116.602 131.578 116.602 131.209V119.505C116.602 119.135 116.725 119.012 117.096 119.012H117.59C117.96 119.012 118.084 119.135 118.084 119.505Z" fill="black"/>
<path d="M123.146 119.505V120.121C123.146 120.49 123.023 120.613 122.652 120.613H122.158C121.911 120.613 121.664 120.49 121.664 120.121V119.505C121.664 119.135 121.788 119.012 122.158 119.012H122.652C123.023 119.012 123.146 119.135 123.146 119.505ZM123.146 123.447V131.209C123.146 131.578 123.023 131.701 122.652 131.701H122.158C121.911 131.701 121.664 131.578 121.664 131.209V123.447C121.664 123.077 121.788 122.954 122.158 122.954H122.652C123.023 122.954 123.146 123.201 123.146 123.447Z" fill="black"/>
<path d="M126.477 123.325C126.477 123.078 126.6 122.955 126.971 122.955H131.664C131.911 122.955 132.158 123.078 132.158 123.448C132.158 123.694 132.158 123.817 132.035 124.064L128.082 130.963H131.788C132.035 130.963 132.282 131.086 132.282 131.456C132.282 131.702 132.158 131.826 131.788 131.826H127.094C126.847 131.826 126.6 131.702 126.6 131.333C126.6 131.086 126.6 130.963 126.724 130.717L130.676 123.817H126.971C126.724 123.817 126.477 123.571 126.477 123.325Z" fill="black"/>
<path d="M139.329 125.664C139.329 124.062 138.959 123.692 137.847 123.692C137.23 123.692 136.489 123.816 135.747 124.185C135.377 124.308 135.253 124.185 135.253 123.816C135.253 123.569 135.377 123.323 135.624 123.323C136.365 123.076 137.106 122.83 137.847 122.83C140.07 122.83 140.812 123.692 140.812 126.033V131.208C140.812 131.577 140.688 131.701 140.317 131.701H139.947C139.7 131.701 139.453 131.577 139.453 131.208V130.715C138.959 131.454 138.094 131.947 137.106 131.947C135.747 131.947 134.883 130.838 134.883 129.36C134.883 127.635 136.118 126.28 138.835 126.28H139.453V125.664H139.329ZM138.712 126.896C137.106 126.896 136.241 127.635 136.241 129.113C136.241 130.345 136.736 130.961 137.353 130.961C138.465 130.961 139.453 129.729 139.453 127.881V126.896H138.712Z" fill="black"/>
<path d="M145.375 119.998H145.869C146.116 119.998 146.363 120.121 146.363 120.491V123.324H148.463C148.71 123.324 148.957 123.448 148.957 123.817C148.957 124.064 148.833 124.187 148.463 124.187H146.363V128.992C146.363 130.717 146.61 131.086 147.474 131.086C147.721 131.086 147.969 131.086 148.216 130.963C148.586 130.84 148.71 130.963 148.71 131.333C148.71 131.579 148.586 131.702 148.339 131.702C147.969 131.825 147.598 131.825 147.227 131.825C145.498 131.825 145.004 131.086 145.004 128.992V124.064H143.893C143.645 124.064 143.398 123.94 143.398 123.571C143.398 123.324 143.522 123.201 143.893 123.201H145.004V120.368C144.881 120.244 145.128 119.998 145.375 119.998Z" fill="black"/>
<path d="M153.529 119.505V120.121C153.529 120.49 153.406 120.613 153.035 120.613H152.541C152.294 120.613 152.047 120.49 152.047 120.121V119.505C152.047 119.135 152.17 119.012 152.541 119.012H153.035C153.406 119.012 153.529 119.135 153.529 119.505ZM153.529 123.447V131.209C153.529 131.578 153.406 131.701 153.035 131.701H152.541C152.294 131.701 152.047 131.578 152.047 131.209V123.447C152.047 123.077 152.17 122.954 152.541 122.954H153.035C153.406 122.954 153.529 123.201 153.529 123.447Z" fill="black"/>
<path d="M159.951 122.83C162.174 122.83 163.409 124.555 163.409 127.389C163.409 130.222 162.174 131.947 159.951 131.947C157.727 131.947 156.492 130.222 156.492 127.389C156.492 126.033 156.739 124.924 157.357 124.062C157.851 123.323 158.839 122.83 159.951 122.83ZM159.951 131.085C161.186 131.085 161.927 129.853 161.927 127.389C161.927 124.801 161.186 123.692 159.951 123.692C158.715 123.692 157.974 124.925 157.974 127.389C157.851 129.853 158.592 131.085 159.951 131.085Z" fill="black"/>
<path d="M166.008 131.208V123.446C166.008 123.076 166.131 122.953 166.502 122.953H166.872C167.119 122.953 167.366 123.076 167.366 123.446V123.939C167.984 123.323 168.725 122.83 169.59 122.83C171.443 122.83 172.06 123.939 172.06 126.526V131.331C172.06 131.701 171.937 131.824 171.566 131.824H171.072C170.825 131.824 170.578 131.701 170.578 131.331V126.773C170.578 124.432 170.084 123.692 169.219 123.692C168.478 123.692 167.366 125.048 167.366 126.403V131.331C167.366 131.701 167.243 131.824 166.872 131.824H166.378C166.131 131.701 166.008 131.577 166.008 131.208Z" fill="black"/>
<path d="M184.535 131.701H184.041C183.794 131.701 183.547 131.578 183.547 131.208V119.874C183.547 119.504 183.67 119.381 183.917 119.381C184.782 119.258 185.647 119.135 186.388 119.135C188.982 119.135 190.34 120.49 190.34 122.831C190.34 125.295 188.982 126.773 186.388 126.773C185.894 126.773 185.4 126.773 184.906 126.65V131.085C185.029 131.578 184.906 131.701 184.535 131.701ZM186.511 126.034C188.117 126.034 189.105 125.048 189.105 123.077C189.105 121.106 188.24 120.12 186.511 120.12C186.017 120.12 185.647 120.12 185.153 120.244V125.911C185.523 125.911 186.017 126.034 186.511 126.034Z" fill="black"/>
<path d="M193.918 131.702H193.424C193.177 131.702 192.93 131.579 192.93 131.21V123.448C192.93 123.078 193.053 122.955 193.424 122.955H193.918C194.165 122.955 194.412 123.078 194.412 123.448V124.433C195.029 123.571 196.141 122.955 197.253 122.955C197.5 122.955 197.747 123.078 197.747 123.448C197.747 123.694 197.623 123.941 197.253 123.941C195.524 123.941 194.412 125.173 194.412 127.637V131.333C194.412 131.579 194.288 131.702 193.918 131.702Z" fill="black"/>
<path d="M203.31 122.83C205.533 122.83 206.768 124.555 206.768 127.389C206.768 130.222 205.533 131.947 203.31 131.947C201.087 131.947 199.852 130.222 199.852 127.389C199.852 126.033 200.099 124.924 200.716 124.062C201.334 123.323 202.198 122.83 203.31 122.83ZM203.31 131.085C204.545 131.085 205.286 129.853 205.286 127.389C205.286 124.801 204.545 123.692 203.31 123.692C202.075 123.692 201.334 124.925 201.334 127.389C201.334 129.853 202.075 131.085 203.31 131.085Z" fill="black"/>
<path d="M214.422 122.953H214.793C215.04 122.953 215.287 123.076 215.287 123.446V131.331C215.287 134.165 214.299 135.52 211.829 135.52C211.211 135.52 210.593 135.397 209.976 135.273C209.729 135.15 209.605 135.027 209.605 134.781C209.605 134.411 209.852 134.288 210.099 134.411C210.717 134.657 211.211 134.781 211.705 134.781C213.064 134.781 213.681 133.795 213.681 131.331V130.838C213.187 131.331 212.446 131.701 211.582 131.701C209.729 131.701 208.617 129.976 208.617 127.265C208.617 124.308 209.729 122.83 211.582 122.83C212.446 122.83 213.187 123.2 213.681 123.816V123.446C213.928 123.2 214.175 122.953 214.422 122.953ZM212.076 123.569C210.964 123.569 210.223 124.801 210.223 127.142C210.223 129.606 210.964 130.838 212.076 130.838C212.94 130.838 213.928 129.729 213.928 128.251V126.28C213.928 124.678 213.064 123.569 212.076 123.569Z" fill="black"/>
<path d="M219.363 131.702H218.869C218.622 131.702 218.375 131.579 218.375 131.21V123.448C218.375 123.078 218.499 122.955 218.869 122.955H219.363C219.61 122.955 219.857 123.078 219.857 123.448V124.433C220.475 123.571 221.586 122.955 222.698 122.955C222.945 122.955 223.192 123.078 223.192 123.448C223.192 123.694 223.069 123.941 222.698 123.941C220.969 123.941 219.857 125.173 219.857 127.637V131.333C219.734 131.579 219.61 131.702 219.363 131.702Z" fill="black"/>
<path d="M229.986 125.664C229.986 124.062 229.615 123.692 228.503 123.692C227.886 123.692 227.145 123.816 226.404 124.185C226.033 124.308 225.91 124.185 225.91 123.816C225.91 123.569 226.033 123.323 226.28 123.323C227.021 123.076 227.762 122.83 228.503 122.83C230.727 122.83 231.468 123.692 231.468 126.033V131.208C231.468 131.577 231.344 131.701 230.974 131.701H230.603C230.356 131.701 230.109 131.577 230.109 131.208V130.715C229.615 131.454 228.75 131.947 227.762 131.947C226.404 131.947 225.539 130.838 225.539 129.36C225.539 127.635 226.774 126.28 229.492 126.28H230.109V125.664H229.986ZM229.245 126.896C227.639 126.896 226.774 127.635 226.774 129.113C226.774 130.345 227.268 130.961 227.886 130.961C228.997 130.961 229.986 129.729 229.986 127.881V126.896H229.245Z" fill="black"/>
<path d="M234.68 131.208V123.446C234.68 123.076 234.803 122.953 235.174 122.953H235.668C235.915 122.953 236.162 123.076 236.162 123.446V123.692C236.532 123.2 237.15 122.83 237.891 122.83C238.756 122.83 239.373 123.2 239.62 124.062C240.114 123.323 240.732 122.83 241.597 122.83C243.202 122.83 243.82 123.816 243.82 126.157V131.208C243.82 131.577 243.696 131.701 243.326 131.701H242.832C242.585 131.701 242.338 131.577 242.338 131.208V126.403C242.338 124.185 241.967 123.569 241.226 123.569C240.732 123.569 239.867 124.678 239.867 125.787V131.208C239.867 131.577 239.744 131.701 239.373 131.701H238.879C238.632 131.701 238.385 131.577 238.385 131.208V126.403C238.385 124.185 238.015 123.569 237.274 123.569C236.779 123.569 235.915 124.678 235.915 125.787V131.208C235.915 131.577 235.791 131.701 235.421 131.701H234.927C234.927 131.701 234.68 131.577 234.68 131.208Z" fill="black"/>
<path d="M17.4168 105.336H17.6638C18.0344 104.967 18.6519 104.474 19.2695 103.612H15.6876C15.317 103.981 14.6995 104.351 13.9584 104.72C13.5878 104.844 13.3408 104.844 13.2173 104.474C13.0937 104.104 13.0937 103.981 13.4643 103.735C14.6994 102.872 15.9346 101.887 17.2933 100.408H13.5878C13.2173 100.408 13.0938 100.162 13.0938 99.9156C13.0938 99.6692 13.3408 99.4228 13.5878 99.4228H16.1816V96.5892H14.4524C14.0819 96.5892 13.9584 96.3428 13.9584 96.0964C13.9584 95.85 14.2054 95.7268 14.4524 95.7268H16.1816V94.618C16.1816 94.2484 16.4287 94.1252 16.6757 94.1252H17.2933C17.6638 94.1252 17.7873 94.3716 17.7873 94.618V95.7268H19.0225C19.393 95.7268 19.5166 95.9732 19.5166 96.2196C19.5166 96.466 19.2695 96.5892 19.0225 96.5892H17.7873V99.4228H18.0344C19.0225 98.1908 19.8871 96.7124 20.6282 95.1108C20.7517 94.7412 20.9987 94.618 21.3693 94.8644L21.6163 94.9876C21.9869 95.1108 21.9869 95.3572 21.8633 95.7268C21.3693 96.8356 20.6282 98.0676 19.6401 99.4228H20.3812C20.7517 99.4228 20.8752 99.6692 20.8752 99.9156C20.8752 100.162 20.6282 100.408 20.3812 100.408H18.899C18.4049 101.024 17.6638 101.764 16.7992 102.626H20.2576C20.6282 102.626 20.7517 102.872 20.7517 103.119C20.7517 103.365 20.7517 103.488 20.5047 103.735C19.8871 104.597 19.146 105.46 18.4049 106.199C19.6401 106.076 20.5047 105.952 21.3693 105.829C21.7398 105.829 21.9869 105.952 21.9869 106.322C21.9869 106.568 21.8633 106.692 21.4928 106.815C20.7517 107.184 19.6401 107.184 18.5284 107.308V109.279C18.5284 111.25 18.4049 111.373 16.6757 111.373C16.3052 111.373 15.8111 111.373 15.07 111.25C14.6995 111.25 14.5759 111.004 14.5759 110.757C14.5759 110.388 14.823 110.264 15.1935 110.264C15.8111 110.264 16.3052 110.388 16.5522 110.388C16.9227 110.388 17.0462 110.264 17.0462 109.156V107.431C16.0581 107.431 14.9465 107.554 13.8348 107.554C13.4643 107.554 13.3408 107.431 13.2173 107.061C13.2173 106.815 13.4643 106.692 13.8348 106.568C14.9465 106.568 15.9346 106.445 17.0462 106.445V105.952C16.7992 105.583 17.0462 105.336 17.4168 105.336ZM20.5047 110.264C21.9869 109.402 23.0985 108.293 24.0866 106.938C23.3455 105.336 22.8515 103.612 22.6044 101.394C22.4809 101.887 22.3574 102.256 22.1104 102.626C21.9869 102.996 21.6163 102.996 21.3693 102.749L20.9987 102.38C20.7517 102.133 20.6282 101.887 20.8752 101.64C21.7398 99.6692 22.3574 97.3284 22.975 94.4947C22.975 94.1251 23.222 94.002 23.5926 94.002L24.0866 94.1252C24.4572 94.1252 24.5807 94.3716 24.5807 94.7412C24.4572 95.3572 24.3337 96.0964 24.0866 96.8356H28.4097C28.7802 96.8356 28.9037 97.082 28.9037 97.3284C28.9037 97.698 28.6567 97.8212 28.4097 97.8212H28.1626C27.7921 101.764 27.1745 104.597 25.8158 106.815C26.5569 108.047 27.298 109.156 28.4097 110.018C28.6567 110.264 28.6567 110.511 28.5332 110.757V110.88C28.4097 111.25 28.0391 111.373 27.7921 111.004C26.5569 110.018 25.5688 109.032 24.9512 108.047C24.0866 109.032 22.8515 110.141 21.2458 111.004C20.8752 111.127 20.6282 111.127 20.5047 110.757C20.0106 110.757 20.1341 110.511 20.5047 110.264ZM23.9631 100.408C24.2101 102.38 24.4572 104.104 24.9512 105.336C25.5688 103.735 26.0629 101.271 26.4334 98.1908H23.5926C23.5926 98.4372 23.3455 98.93 23.0985 99.7924H23.3455C23.7161 99.546 23.8396 99.9156 23.9631 100.408Z" fill="black"/>
<path d="M47.9219 96.3426C47.9219 96.589 47.6749 96.7122 47.4279 96.7122H39.2758C38.9053 97.4514 38.5348 98.3138 37.7937 99.4226C40.1405 99.2994 42.3637 99.053 44.587 98.8066C44.34 98.5602 44.093 98.3138 43.9694 98.0674C43.7224 97.821 43.7224 97.5746 43.9694 97.3282L44.093 97.205C44.34 96.9586 44.587 96.9586 44.834 97.205C45.8222 98.1906 46.5633 99.053 47.3044 99.9154C47.5514 100.162 47.5514 100.408 47.1808 100.655L47.0573 101.024C46.8103 101.271 46.5633 101.271 46.3162 100.901C46.0692 100.531 45.6987 100.162 45.3281 99.7922C41.2521 100.285 37.4231 100.531 33.9647 100.655C33.5941 100.655 33.4706 100.531 33.3471 100.162C33.3471 99.9155 33.4706 99.7923 33.8412 99.669L36.0644 99.5459C36.435 98.8066 37.0526 97.9442 37.5466 96.7122H33.4706C33.1001 96.7122 32.9766 96.4658 32.9766 96.2194C32.9766 95.973 33.2236 95.8498 33.4706 95.8498H39.5229V94.6178C39.5229 94.2482 39.7699 94.125 40.0169 94.125H40.758C41.1286 94.125 41.2521 94.3714 41.2521 94.6178V95.8498H47.3044C47.7984 95.8498 47.9219 95.973 47.9219 96.3426ZM35.6939 111.496H35.0763C34.7058 111.496 34.5823 111.25 34.5823 111.004V102.379C34.5823 102.01 34.8293 101.887 35.0763 101.887H45.8222C46.1927 101.887 46.3162 102.133 46.3162 102.379V109.648C46.3162 111.127 46.0692 111.373 44.093 111.373C43.5989 111.373 42.9813 111.373 42.1167 111.25C41.7462 111.25 41.6226 111.004 41.6226 110.634C41.6226 110.264 41.8697 110.141 42.2402 110.141C42.9813 110.141 43.3519 110.264 43.8459 110.264C44.587 110.264 44.7105 110.388 44.7105 109.525V108.416H36.3115V111.004C36.3115 111.373 36.0644 111.496 35.6939 111.496ZM36.3115 104.72H44.7105V102.872H36.3115V104.72ZM36.3115 105.583V107.554H44.7105V105.583H36.3115Z" fill="black"/>
<path d="M61.5118 101.763C61.5118 102.133 61.2648 102.256 61.0177 102.256H53.2362C52.8657 102.256 52.7422 102.01 52.7422 101.763C52.7422 101.394 52.9892 101.271 53.2362 101.271H54.842C54.4714 99.7922 54.2244 98.3138 53.8538 96.9586H53.3598C52.9892 96.9586 52.8657 96.7122 52.8657 96.4658C52.8657 96.2194 53.1127 95.973 53.3598 95.973H56.2006V94.6178C56.2006 94.2482 56.4477 94.125 56.6947 94.125H57.3123C57.6828 94.125 57.8063 94.3714 57.8063 94.6178V95.973H60.6472C61.0177 95.973 61.1412 96.2194 61.1412 96.4658C61.1412 96.7122 60.8942 96.9586 60.6472 96.9586H60.5237C60.2766 98.3138 60.0296 99.7922 59.5355 101.271H61.0177C61.3883 101.271 61.5118 101.394 61.5118 101.763ZM59.0415 111.127V110.88H55.336V111.127C55.336 111.496 55.089 111.62 54.842 111.62H54.2244C53.8538 111.62 53.7303 111.373 53.7303 111.127V104.843C53.7303 104.474 53.9773 104.351 54.2244 104.351H60.1531C60.5237 104.351 60.6472 104.597 60.6472 104.843V111.127C60.6472 111.496 60.4001 111.62 60.1531 111.62H59.659C59.2885 111.62 59.0415 111.496 59.0415 111.127ZM59.0415 109.895V105.336H55.336V109.895H59.0415ZM58.918 96.9586H55.4595C55.8301 98.437 56.2006 99.9154 56.4477 101.271H57.9298C58.3004 100.039 58.6709 98.5602 58.918 96.9586ZM67.8111 96.3426C67.317 97.9442 66.6994 99.7923 65.7113 101.64C67.1935 103.119 67.9346 104.843 67.9346 106.692C67.9346 108.663 67.07 109.648 65.0937 109.648H64.5997C64.2291 109.648 64.1056 109.525 63.9821 109.156C63.9821 108.786 64.1056 108.663 64.4762 108.663C65.8348 108.663 66.2054 108.293 66.2054 106.692C66.2054 104.967 65.4643 103.365 64.3526 102.01C64.1056 101.763 64.1056 101.517 64.2291 101.271C64.9702 99.7922 65.5878 97.9442 66.2054 96.0962H63.3645V111.25C63.3645 111.62 63.1175 111.743 62.8705 111.743H62.3764C62.0058 111.743 61.8823 111.496 61.8823 111.25V95.6034C61.8823 95.2338 62.1294 95.1106 62.3764 95.1106H67.317C67.6876 95.1106 67.8111 95.357 67.8111 95.6034V95.7266C67.9346 95.973 67.9346 96.0962 67.8111 96.3426Z" fill="black"/>
<path d="M79.6654 94.125H80.283C80.6535 94.125 80.777 94.3714 80.777 94.6178V95.8498H86.7058C87.0763 95.8498 87.1998 96.0962 87.1998 96.3426C87.1998 96.7122 86.9528 96.8354 86.7058 96.8354H73.1191C72.7485 96.8354 72.625 96.589 72.625 96.3426C72.625 95.973 72.872 95.8498 73.1191 95.8498H79.0478V94.6178C79.1713 94.2482 79.2948 94.125 79.6654 94.125ZM74.2307 111.496H73.7366C73.3661 111.496 73.2426 111.25 73.2426 111.004V103.981C73.2426 103.611 73.4896 103.488 73.7366 103.488H86.4587C86.8293 103.488 86.9528 103.735 86.9528 103.981V109.156C86.9528 111.25 86.8293 111.496 84.9765 111.496C84.7295 111.496 84.2355 111.496 83.4944 111.373C83.1238 111.373 83.0003 111.127 83.0003 110.88C83.0003 110.511 83.1238 110.388 83.6179 110.388C84.2354 110.388 84.606 110.388 84.853 110.388C85.5941 110.388 85.4706 110.264 85.4706 109.156V104.351H74.9718V111.004C74.7248 111.373 74.4777 111.496 74.2307 111.496ZM85.1001 98.8066V101.517C85.1001 101.887 84.853 102.01 84.606 102.01H75.5894C75.2188 102.01 75.0953 101.763 75.0953 101.517V98.8066C75.0953 98.437 75.3423 98.3138 75.5894 98.3138H84.606C84.853 98.1906 85.1001 98.437 85.1001 98.8066ZM77.1951 110.388H76.5775C76.2069 110.388 76.0834 110.141 76.0834 109.895V106.322C76.0834 105.952 76.3305 105.829 76.5775 105.829H83.3708C83.7414 105.829 83.8649 106.076 83.8649 106.322V109.032C83.8649 109.402 83.6179 109.525 83.3708 109.525H77.6891V110.018C77.6891 110.264 77.4421 110.388 77.1951 110.388ZM76.701 101.147H83.3708V99.1762H76.701V101.147ZM77.6891 108.663H82.2592V106.692H77.6891V108.663Z" fill="black"/>
<path d="M98.9366 111.496V105.459H94.49V106.198C94.49 106.568 94.243 106.691 93.9959 106.691H93.5019C93.1313 106.691 93.0078 106.445 93.0078 106.198V98.1903C93.0078 97.8207 93.2548 97.6975 93.5019 97.6975H98.9366V94.8639C98.9366 94.4943 99.1836 94.3711 99.4306 94.3711H100.048C100.419 94.3711 100.542 94.6175 100.542 94.8639V97.6975H105.977C106.347 97.6975 106.471 97.9439 106.471 98.1903V106.198C106.471 106.568 106.224 106.691 105.977 106.691H105.483C105.112 106.691 104.989 106.445 104.989 106.198V105.459H100.542V111.496C100.542 111.866 100.295 111.989 100.048 111.989H99.4306C99.0601 111.989 98.9366 111.866 98.9366 111.496ZM94.49 104.35H98.9366V98.6831H94.49V104.35ZM100.666 104.35H104.989V98.6831H100.542V104.35H100.666Z" fill="black"/>
<path d="M114.009 111.866H113.638C113.268 111.866 113.144 111.619 113.144 111.373V103.365C112.897 103.734 112.774 103.981 112.65 104.35C112.403 104.843 112.033 104.72 111.909 104.227L111.786 103.857C111.662 103.611 111.786 103.365 111.909 103.118C113.021 101.024 113.885 98.1902 114.503 94.9869C114.503 94.6173 114.75 94.4941 115.12 94.4941H115.491C115.862 94.4941 115.985 94.7405 115.985 95.1101C115.738 96.7118 115.367 98.3134 114.75 99.915V111.25C114.503 111.619 114.379 111.866 114.009 111.866ZM115.244 111.126C115.244 110.757 115.367 110.51 115.738 110.51C117.467 110.264 118.826 110.141 120.185 109.648C119.691 109.401 119.196 109.032 118.702 108.785C118.332 108.539 118.332 108.293 118.702 108.046C118.949 107.8 119.196 107.8 119.443 108.046C120.061 108.539 120.679 108.909 121.296 109.155C122.161 108.785 122.902 108.169 123.767 107.553H118.332C117.714 108.046 116.85 108.539 115.862 109.032C115.491 109.155 115.244 109.032 115.12 108.662C114.997 108.416 115.12 108.169 115.491 108.046C116.603 107.553 117.714 106.814 118.702 105.952C118.208 105.705 118.208 105.459 118.208 104.966V103.981C118.208 103.611 118.455 103.488 118.702 103.488H119.073C119.443 103.488 119.567 103.734 119.567 103.981V104.473C119.567 104.966 119.691 105.089 119.691 105.089C119.814 105.089 121.543 104.966 121.79 104.966C122.161 104.966 122.408 104.966 122.655 104.843C122.902 104.72 123.025 104.473 123.025 104.227V103.857C123.025 103.857 123.272 103.488 123.643 103.488H124.137L124.508 103.118C124.755 102.872 125.002 102.872 125.249 103.241C125.372 103.365 125.496 103.488 125.496 103.734V102.379H116.603V103.611C116.603 103.611 116.603 103.488 116.726 103.488C116.85 103.118 117.22 102.995 117.467 103.365H117.591C117.838 103.611 117.961 103.857 117.714 104.104C117.344 104.72 116.973 105.336 116.479 105.952C116.232 106.198 115.985 106.198 115.738 105.952C115.491 105.705 115.491 105.459 115.738 105.213L116.356 104.35H115.738C115.367 104.35 115.244 104.104 115.244 103.857V102.133C115.244 101.763 115.491 101.64 115.738 101.64H116.479V97.451C116.479 97.0814 116.726 96.9582 116.973 96.9582H120.061L120.432 95.9726H116.479C116.109 95.9726 115.985 95.7262 115.985 95.4798C115.985 95.2334 116.232 95.1101 116.479 95.1101H126.237C126.607 95.1101 126.731 95.3566 126.731 95.603C126.731 95.8494 126.484 95.9726 126.237 95.9726H121.914L121.543 96.9582H125.496C125.866 96.9582 125.99 97.2046 125.99 97.451V101.64H126.731C127.101 101.64 127.225 101.886 127.225 102.133V103.857C127.225 104.227 126.978 104.35 126.731 104.35H126.237C126.484 104.72 126.607 105.089 126.854 105.336C126.978 105.582 126.978 105.829 126.731 106.075L126.607 106.198C126.36 106.445 125.99 106.445 125.866 106.075C125.496 105.459 125.125 104.843 124.878 104.35C124.878 104.72 124.755 104.843 124.508 105.213C124.384 105.459 123.52 105.459 122.902 105.582C122.655 105.582 122.161 105.582 121.42 105.582C121.296 105.582 120.432 105.582 120.432 105.582C120.432 105.582 120.185 105.952 119.691 106.445H125.249C125.619 106.445 125.743 106.691 125.743 106.937C125.743 107.061 125.619 107.184 125.496 107.43C124.878 108.046 124.014 108.662 122.902 109.278C124.384 109.771 125.743 110.017 127.225 110.264C127.596 110.264 127.719 110.51 127.719 110.88C127.719 111.25 127.472 111.373 127.101 111.373C125.125 111.126 123.396 110.633 121.667 109.894C120.061 110.633 118.208 111.126 116.232 111.373C115.491 111.619 115.244 111.496 115.244 111.126V110.88V111.126ZM118.208 98.9294H124.261V97.9438H118.208V98.9294ZM118.208 99.4222V100.531H124.261V99.4222H118.208ZM118.208 100.901V102.009H124.261V100.901H118.208ZM120.555 103.118C120.679 102.872 120.926 102.872 121.173 103.118C121.667 103.365 122.037 103.611 122.408 103.734C122.655 103.857 122.778 104.227 122.655 104.473C122.531 104.72 122.284 104.72 122.037 104.597C121.667 104.35 121.296 104.104 120.802 103.857C120.432 103.734 120.308 103.488 120.555 103.118Z" fill="black"/>
<path d="M138.834 97.206C139.204 97.206 139.328 97.4524 139.328 97.6988C139.328 97.9452 139.081 98.0684 138.834 98.0684H137.969V99.3004C137.969 99.67 137.722 99.7932 137.475 99.7932H136.981C136.611 99.7932 136.487 99.5468 136.487 99.3004V98.0684H134.634C134.511 98.8076 134.264 99.5468 133.893 100.409H144.763C145.133 100.409 145.257 100.656 145.257 100.902V107.801C145.257 108.171 145.01 108.294 144.763 108.294H133.77C133.399 108.294 133.276 108.048 133.276 107.801V101.395C133.152 101.518 133.029 101.641 132.905 101.764C132.658 102.134 132.288 102.011 132.164 101.641L131.917 101.148C131.794 100.902 131.794 100.656 132.041 100.409C132.658 99.3004 133.152 97.822 133.152 95.7276C133.152 95.358 133.399 95.2348 133.77 95.1116C135.623 95.1116 137.228 94.8652 138.834 94.3724C139.204 94.2492 139.452 94.3724 139.452 94.742C139.452 94.9884 139.452 95.2348 139.081 95.2348C137.722 95.6044 136.364 95.7276 134.511 95.8508V96.8364H138.834V97.206ZM137.846 110.019C136.734 110.758 134.881 111.128 132.782 111.621C132.411 111.744 132.164 111.621 132.164 111.251V111.128C132.041 110.758 132.164 110.512 132.535 110.512C134.017 110.142 135.623 109.649 137.105 108.91C137.475 108.787 137.722 108.91 137.846 109.156L137.969 109.403C138.093 109.773 138.093 110.019 137.846 110.019ZM135.005 102.873H143.651V101.395H135.005V102.873ZM135.005 103.736V105.337H143.651V103.736H135.005ZM135.005 106.076V107.555H143.651V106.076H135.005ZM146.986 97.6988C146.986 97.9452 146.739 98.0684 146.492 98.0684H144.886V99.3004C144.886 99.67 144.639 99.7932 144.392 99.7932H143.898C143.528 99.7932 143.404 99.5468 143.404 99.3004V98.0684H141.551C141.428 98.6844 141.304 99.1772 140.934 99.67C140.81 100.04 140.44 100.04 140.193 99.9164L139.946 99.7932C139.575 99.67 139.575 99.4236 139.699 99.054C139.946 98.3148 140.193 97.3292 140.193 95.8508C140.193 95.4812 140.44 95.358 140.81 95.2348C142.663 95.2348 144.269 94.9884 145.874 94.4956C146.245 94.3724 146.492 94.4956 146.492 94.8652C146.492 95.1116 146.368 95.358 145.998 95.4812C144.763 95.7276 143.28 95.974 141.675 96.0972C141.675 96.0972 141.675 96.2204 141.675 97.0828H146.615C146.739 97.206 146.986 97.4524 146.986 97.6988ZM145.751 111.621C144.392 111.005 142.786 110.389 141.057 109.896C140.687 109.773 140.563 109.526 140.687 109.28V109.156C140.687 108.787 141.057 108.664 141.428 108.787C144.022 109.526 145.257 110.019 146.245 110.389C146.615 110.512 146.615 110.758 146.492 111.128L146.368 111.497C146.368 111.744 146.121 111.867 145.751 111.621Z" fill="black"/>
<path d="M155.14 111.866H154.522C154.152 111.866 154.028 111.619 154.028 111.373V102.502C153.534 103.365 153.04 104.104 152.546 104.843C152.299 105.213 151.928 105.089 151.805 104.72L151.558 104.35C151.434 104.104 151.434 103.857 151.681 103.611C153.41 101.393 154.646 98.4366 155.51 94.9869C155.634 94.6173 155.881 94.4941 156.128 94.4941L156.622 94.6173C156.992 94.7406 157.116 94.8638 157.116 95.2334C156.869 96.5886 156.375 97.9438 155.881 99.299V111.25C155.757 111.619 155.51 111.866 155.14 111.866ZM159.092 94.7405H159.71C160.08 94.7405 160.204 94.987 160.204 95.2334V101.024C161.686 100.161 163.292 98.8062 165.021 96.9582C165.268 96.7118 165.638 96.7118 165.762 96.9582L165.886 97.2046C166.009 97.451 166.009 97.6974 165.762 97.9438C163.909 99.7918 162.057 101.27 160.08 102.379V108.539C160.08 110.141 160.08 110.141 160.698 110.264C161.192 110.264 161.562 110.387 162.057 110.387C163.168 110.387 164.033 110.51 164.403 109.401C164.527 109.032 164.65 107.8 164.65 105.582C164.65 105.213 164.897 104.966 165.268 104.966H165.762C166.133 104.966 166.256 105.213 166.256 105.582C166.133 107.43 166.133 108.169 166.009 109.155C165.885 110.141 165.885 110.264 165.391 110.757C165.021 111.126 164.65 111.126 163.909 111.25C163.415 111.25 162.921 111.373 162.18 111.373C160.821 111.373 159.092 111.373 158.845 110.757C158.598 110.387 158.475 109.771 158.475 108.662V95.1101C158.598 94.8637 158.845 94.7405 159.092 94.7405Z" fill="black"/>
<path d="M172.06 106.445C171.689 106.445 171.566 106.198 171.566 105.952V99.7916C171.566 99.422 171.813 99.2988 172.06 99.2988H173.789V97.3276H171.689C171.319 97.3276 171.195 97.0812 171.195 96.8348C171.195 96.5884 171.442 96.4652 171.689 96.4652H173.789V94.8636C173.789 94.494 174.036 94.3708 174.283 94.3708H174.777C175.148 94.3708 175.271 94.6172 175.271 94.8636V96.2188H177.124C177.495 96.2188 177.618 96.4652 177.618 96.7116C177.618 96.958 177.371 97.0812 177.124 97.0812H175.395V99.0524H177.124C177.495 99.0524 177.618 99.2988 177.618 99.5452V105.705C177.618 106.075 177.371 106.198 177.124 106.198H175.395V108.416H177.248C177.618 108.416 177.742 108.662 177.742 108.909C177.742 109.155 177.495 109.401 177.248 109.401H175.395V111.373C175.395 111.742 175.148 111.865 174.901 111.865H174.407C174.036 111.865 173.913 111.619 173.913 111.373V109.401H171.689C171.319 109.401 171.195 109.155 171.195 108.909C171.195 108.662 171.442 108.416 171.689 108.416H173.789V106.445H172.06ZM172.925 102.256H173.789V100.038H172.925V102.256ZM172.925 105.459H173.789V103.118H172.925V105.459ZM176.136 102.256V100.038H175.271V102.256H176.136ZM176.136 103.118H175.271V105.459H176.136V103.118ZM183.053 94.7404V95.8492H184.411L183.67 94.9868C183.423 94.7404 183.547 94.494 183.794 94.2476H183.917C184.164 94.0012 184.411 94.1244 184.658 94.3708C185.153 94.9868 185.647 95.4796 186.017 95.9724C186.388 95.9724 186.511 96.2188 186.511 96.4652C186.511 96.7116 186.264 96.958 186.017 96.958H182.929V99.0524H185.647C186.017 99.0524 186.141 99.2988 186.141 99.5452V109.401C186.141 111.373 186.017 111.742 184.658 111.742C184.411 111.742 184.164 111.742 183.917 111.742C183.547 111.742 183.423 111.496 183.423 111.126C183.423 110.88 183.547 110.633 183.917 110.757C184.164 110.757 184.288 110.757 184.411 110.757H184.535C184.535 110.757 184.535 110.633 184.535 110.51C184.535 110.51 184.535 110.017 184.535 109.525V107.184H182.929V110.757C182.929 111.126 182.682 111.249 182.435 111.249H181.941C181.571 111.249 181.447 111.003 181.447 110.757V107.184H179.841V111.126C179.841 111.496 179.594 111.619 179.347 111.619H178.853C178.483 111.619 178.359 111.373 178.359 111.126V99.422C178.359 99.0524 178.606 98.9292 178.853 98.9292H181.571V96.8348H178.73C178.359 96.8348 178.236 96.5884 178.236 96.342C178.236 96.0956 178.483 95.8492 178.73 95.8492H181.571V94.7404C181.571 94.3708 181.818 94.2476 182.065 94.2476H182.559C182.806 94.2476 183.053 94.494 183.053 94.7404ZM181.447 102.502V99.9148H179.841V102.502H181.447ZM181.447 103.364H179.841V106.321H181.447V103.364ZM183.053 102.502H184.658V99.9148H183.053V102.502ZM183.053 103.364V106.321H184.658V103.364H183.053Z" fill="black"/>
<path d="M192.435 95.4798H197.252C197.623 95.4798 197.746 95.7262 197.746 95.9726V107.553C198.117 107.43 198.364 107.553 198.364 107.923C198.364 108.169 198.241 108.416 197.993 108.539C196.141 109.401 193.917 110.141 191.571 110.757C191.2 110.88 190.953 110.633 190.953 110.264C190.953 110.017 191.077 109.771 191.447 109.648L191.941 109.525V96.0958C191.818 95.7262 192.065 95.4798 192.435 95.4798ZM193.423 100.038H196.141V96.5886H193.423V100.038ZM193.423 100.901V104.597H196.141V100.901H193.423ZM193.423 109.278C194.288 109.032 195.276 108.662 196.141 108.293V105.459H193.423V109.278ZM205.898 99.0526C205.898 102.995 205.898 105.336 205.775 107.307C205.651 108.293 205.651 109.032 205.528 109.648C205.404 110.51 205.034 111.126 204.416 111.249C204.293 111.249 203.922 111.373 203.552 111.373C203.058 111.373 202.317 111.373 201.575 111.249C201.205 111.249 201.081 111.003 201.081 110.633C201.081 110.264 201.452 110.141 202.07 110.141C202.564 110.264 203.058 110.264 203.305 110.264C203.552 110.264 203.675 110.017 203.799 109.278C203.799 109.032 203.922 108.416 204.046 107.553C204.169 106.075 204.169 103.488 204.169 99.4222H201.822C201.575 105.336 200.711 108.416 198.735 111.373C198.488 111.619 198.241 111.742 197.993 111.496L197.746 111.249C197.499 111.003 197.376 110.757 197.623 110.51C199.229 108.046 200.093 105.089 200.34 99.4222H198.858C198.488 99.4222 198.364 99.1758 198.364 98.9294C198.364 98.5598 198.611 98.4366 198.858 98.4366H200.34C200.34 97.451 200.34 96.219 200.34 94.9869C200.34 94.6173 200.587 94.4941 200.834 94.4941H201.452C201.822 94.4941 201.946 94.7405 201.946 94.9869C201.946 95.9726 201.946 97.0814 201.946 98.4366H205.404C205.775 98.4366 205.898 98.683 205.898 99.0526Z" fill="black"/>
<path d="M224.061 108.046C223.691 110.51 222.95 111.126 221.221 111.126C220.603 111.126 219.615 111.126 218.256 111.003C217.886 111.003 217.762 110.757 217.762 110.387C217.762 110.018 218.009 109.771 218.38 109.894C219.615 110.018 220.479 110.018 221.097 110.018C221.838 110.018 222.085 109.525 222.456 107.307C222.579 106.322 222.703 104.72 222.703 102.626V102.379H217.145C216.65 106.322 215.539 108.786 212.698 111.373C212.451 111.619 212.204 111.619 211.957 111.25L211.71 111.003C211.463 110.757 211.586 110.51 211.833 110.264C213.686 108.539 214.674 106.568 215.292 103.858C215.539 102.379 215.662 100.408 215.662 98.0671H211.463C211.092 98.0671 210.969 97.8207 210.969 97.5743C210.969 97.2047 211.216 97.0815 211.463 97.0815H217.515V94.8639C217.515 94.4943 217.762 94.3711 218.009 94.3711H218.627C218.997 94.3711 219.121 94.6175 219.121 94.8639V97.0815H225.173C225.544 97.0815 225.667 97.3279 225.667 97.5743C225.667 97.9439 225.42 98.0671 225.173 98.0671H217.145C217.145 99.4223 217.145 100.408 217.021 101.27H223.691C224.061 101.27 224.185 101.517 224.185 101.763V102.01C224.432 104.72 224.308 106.691 224.061 108.046Z" fill="black"/>
<path d="M230.85 106.199C230.85 105.829 231.097 105.706 231.344 105.706H237.149V104.844C237.149 104.474 237.396 104.351 237.643 104.351H238.26C238.631 104.351 238.755 104.597 238.755 104.844V105.706H244.56C244.93 105.706 245.054 105.953 245.054 106.199C245.054 106.445 244.807 106.692 244.56 106.692H239.249C240.731 108.17 242.583 109.402 245.054 110.388C245.424 110.511 245.548 110.757 245.424 111.127C245.301 111.497 245.054 111.62 244.683 111.373C242.213 110.265 240.237 108.909 238.878 107.677V111.127C238.878 111.497 238.631 111.62 238.384 111.62H237.766C237.396 111.62 237.272 111.373 237.272 111.127V107.677C235.914 109.033 233.937 110.265 231.467 111.373C231.097 111.497 230.85 111.373 230.726 111.127C230.602 110.757 230.726 110.634 231.097 110.388C233.443 109.402 235.296 108.17 236.902 106.692H231.591C231.097 106.815 230.85 106.569 230.85 106.199ZM245.301 99.0534C245.301 99.2998 245.054 99.5462 244.807 99.5462H242.336C241.842 100.532 240.978 101.641 239.866 102.503C241.348 102.996 242.831 103.612 244.313 104.351C244.683 104.474 244.683 104.844 244.56 105.09C244.436 105.46 244.066 105.46 243.819 105.337C241.966 104.474 240.36 103.735 238.878 103.242C237.396 104.105 235.296 104.721 232.455 105.213C232.085 105.213 231.838 105.09 231.838 104.721C231.714 104.351 231.961 104.228 232.332 104.105C234.555 103.735 236.284 103.242 237.519 102.626C236.531 102.38 235.667 102.133 234.926 102.01C234.802 102.133 234.678 102.257 234.555 102.38C234.308 102.626 234.061 102.626 233.814 102.38L233.69 102.257C233.32 102.01 233.32 101.764 233.69 101.517C234.308 101.025 234.926 100.285 235.543 99.5462H231.961C231.591 99.5462 231.467 99.2998 231.467 99.0534C231.467 98.807 231.714 98.5606 231.961 98.5606H236.284C236.655 98.0677 236.902 97.6981 237.272 97.0821C237.396 96.8357 237.643 96.7125 238.013 96.7125L238.507 96.8357C238.878 96.8357 239.002 97.2053 238.755 97.8213C238.507 98.191 238.384 98.4373 238.26 98.6838H245.301C245.054 98.5605 245.301 98.6838 245.301 99.0534ZM244.436 98.0677H243.819C243.448 98.0677 243.325 97.8213 243.325 97.5749V96.3429H232.826V97.5749C232.826 97.9445 232.579 98.0677 232.332 98.1909H231.714C231.344 98.1909 231.22 97.9446 231.22 97.6981V96.0965C231.22 95.7269 231.467 95.6037 231.714 95.6037H237.272V94.3717C237.272 94.0021 237.519 93.8789 237.766 93.8789H238.384C238.754 93.8789 238.878 94.1253 238.878 94.3717V95.6037H244.436C244.807 95.6037 244.93 95.8501 244.93 96.0965V97.6981C245.054 97.9446 244.807 98.1909 244.436 98.0677ZM235.42 101.271C236.655 101.517 237.643 101.764 238.507 102.133C239.372 101.641 240.113 100.778 240.854 99.5462H236.902C236.655 99.9158 236.161 100.532 235.42 101.271Z" fill="black"/>
<path d="M64.8462 85.3787C27.0504 85.3787 6.91743 73.4282 0.618142 61.1081C-0.740528 58.3977 0.247595 54.9481 3.08845 53.5928C5.80579 52.2376 9.26422 53.2232 10.6229 56.0569C17.2927 69.1162 45.9483 76.2619 80.0386 73.5514C127.345 69.7322 181.074 47.556 194.414 6.65322C195.155 4.3124 197.378 2.83398 199.725 2.83398C202.195 2.83398 204.295 4.4356 205.036 6.77642C215.535 39.4247 238.138 59.9993 255.925 65.913C258.889 66.8986 260.495 70.1018 259.507 72.9354C258.518 75.7691 255.307 77.4939 252.466 76.5083C241.103 72.689 229.369 64.6809 219.364 53.5928C211.335 44.8456 204.542 34.4967 199.478 23.1622C190.708 39.1783 175.763 53.1 155.63 63.8185C134.262 75.153 107.706 82.6683 80.9032 84.7627C75.345 85.1323 69.9103 85.3787 64.8462 85.3787Z" fill="#58B9D8"/>
<path d="M134.88 25.0104C129.074 25.0104 123.887 24.0248 120.799 21.9304C119.07 20.8216 118.576 18.4808 119.687 16.756C120.799 15.0311 123.146 14.5383 124.875 15.6472C127.963 17.6184 138.338 18.604 148.343 15.4007C154.025 13.5527 161.559 9.8567 164.523 2.34143C165.141 0.863017 166.5 -0.122592 168.105 0.000609285C169.711 0.000609285 171.07 1.10942 171.564 2.58783C172.922 6.89987 176.134 14.1687 182.063 14.7847C184.162 14.9079 185.645 16.756 185.398 18.8504C185.274 20.9448 183.421 22.4232 181.322 22.1768C175.64 21.684 170.946 18.1112 167.488 11.9511C162.671 17.7416 156.001 20.9448 150.566 22.6696C145.502 24.148 139.944 25.0104 134.88 25.0104Z" fill="#C30F23"/>
<path d="M222.575 23.6562C225.577 23.6562 228.01 21.2292 228.01 18.2353C228.01 15.2415 225.577 12.8145 222.575 12.8145C219.574 12.8145 217.141 15.2415 217.141 18.2353C217.141 21.2292 219.574 23.6562 222.575 23.6562Z" fill="#C30F23"/>
<path d="M237.524 17.3728C239.639 17.3728 241.353 15.6629 241.353 13.5536C241.353 11.4443 239.639 9.73438 237.524 9.73438C235.41 9.73438 233.695 11.4443 233.695 13.5536C233.695 15.6629 235.41 17.3728 237.524 17.3728Z" fill="#E94828"/>
<path d="M244.809 5.66766C246.037 5.66766 247.033 4.6748 247.033 3.45004C247.033 2.22528 246.037 1.23242 244.809 1.23242C243.581 1.23242 242.586 2.22528 242.586 3.45004C242.586 4.6748 243.581 5.66766 244.809 5.66766Z" fill="#FDD557"/>
</g>
<defs>
<clipPath id="clip0_363_15739">
<rect width="260" height="135.521" fill="white"/>
</clipPath>
</defs>
</svg>
