<svg width="23" height="23" viewBox="0 0 23 23" fill="none" xmlns="http://www.w3.org/2000/svg">
<g clip-path="url(#clip0_327_25487)">
<path fill-rule="evenodd" clip-rule="evenodd" d="M4.78906 19.5859V5.03125C4.78906 4.45938 5.01624 3.91093 5.42061 3.50655C5.82499 3.10218 6.37344 2.875 6.94531 2.875H15.5703C16.1422 2.875 16.6906 3.10218 17.095 3.50655C17.4994 3.91093 17.7266 4.45938 17.7266 5.03125V19.5859C17.7266 19.6795 17.7023 19.7716 17.656 19.8529C17.6097 19.9343 17.543 20.0022 17.4625 20.0499C17.382 20.0977 17.2905 20.1237 17.1969 20.1253C17.1033 20.1269 17.0109 20.1042 16.9288 20.0592L11.2578 16.965L5.58688 20.0592C5.50475 20.1042 5.41235 20.1269 5.31875 20.1253C5.22515 20.1237 5.1336 20.0977 5.05309 20.0499C4.97258 20.0022 4.90589 19.9343 4.8596 19.8529C4.8133 19.7716 4.78899 19.6795 4.78906 19.5859ZM11.4303 7.29531C11.4146 7.26298 11.39 7.23573 11.3595 7.21667C11.329 7.19761 11.2938 7.1875 11.2578 7.1875C11.2218 7.1875 11.1866 7.19761 11.1561 7.21667C11.1256 7.23573 11.1011 7.26298 11.0853 7.29531L10.4018 8.6807C10.3881 8.70873 10.3678 8.73299 10.3426 8.7514C10.3174 8.76981 10.2882 8.78181 10.2573 8.78636L8.72638 9.00845C8.69113 9.0138 8.65807 9.02886 8.63091 9.05194C8.60374 9.07502 8.58354 9.10521 8.57257 9.13913C8.5616 9.17305 8.5603 9.20935 8.5688 9.24397C8.5773 9.27859 8.59528 9.31015 8.62072 9.33512L9.72687 10.4143C9.77216 10.4585 9.79264 10.5221 9.78186 10.5847L9.52203 12.1091C9.51617 12.1443 9.52024 12.1805 9.53379 12.2135C9.54733 12.2465 9.56982 12.2751 9.59871 12.296C9.6276 12.317 9.66177 12.3295 9.69736 12.3321C9.73295 12.3347 9.76856 12.3273 9.80019 12.3108L11.1694 11.5906C11.1969 11.5762 11.2274 11.5687 11.2584 11.5687C11.2893 11.5687 11.3198 11.5762 11.3473 11.5906L12.7165 12.3108C12.7481 12.327 12.7836 12.3341 12.819 12.3314C12.8544 12.3286 12.8884 12.3161 12.9171 12.2952C12.9458 12.2743 12.9682 12.2459 12.9817 12.213C12.9952 12.1802 12.9993 12.1442 12.9936 12.1091L12.7327 10.5836C12.7272 10.553 12.7292 10.5214 12.7386 10.4918C12.748 10.4621 12.7645 10.4351 12.7866 10.4132L13.8949 9.33405C13.9203 9.30907 13.9383 9.27751 13.9468 9.24289C13.9553 9.20827 13.954 9.17197 13.9431 9.13805C13.9321 9.10414 13.9119 9.07394 13.8847 9.05086C13.8576 9.02778 13.8245 9.01272 13.7892 9.00738L12.2583 8.78528C12.2275 8.78073 12.1982 8.76874 12.173 8.75033C12.1478 8.73192 12.1275 8.70765 12.1138 8.67963L11.4303 7.29531Z" fill="black"/>
</g>
<defs>
<clipPath id="clip0_327_25487">
<rect width="17.25" height="17.25" fill="white" transform="translate(2.875 2.875)"/>
</clipPath>
</defs>
</svg>
