<svg width="24" height="23" viewBox="0 0 24 23" fill="none" xmlns="http://www.w3.org/2000/svg">
<path d="M12.3802 1.91602C8.67146 1.91602 5.67188 4.9156 5.67188 8.62435C5.67188 13.6556 12.3802 21.0827 12.3802 21.0827C12.3802 21.0827 19.0885 13.6556 19.0885 8.62435C19.0885 4.9156 16.089 1.91602 12.3802 1.91602ZM12.3802 11.0202C11.7448 11.0202 11.1354 10.7678 10.6861 10.3185C10.2368 9.86915 9.98438 9.25976 9.98438 8.62435C9.98438 7.98893 10.2368 7.37955 10.6861 6.93024C11.1354 6.48093 11.7448 6.22852 12.3802 6.22852C13.0156 6.22852 13.625 6.48093 14.0743 6.93024C14.5236 7.37955 14.776 7.98893 14.776 8.62435C14.776 9.25976 14.5236 9.86915 14.0743 10.3185C13.625 10.7678 13.0156 11.0202 12.3802 11.0202Z" fill="black"/>
</svg>
