<svg width="24" height="18" viewBox="0 0 24 18" fill="none" xmlns="http://www.w3.org/2000/svg">
<path d="M3.44931 10.3625V13.0554C3.44931 13.755 3.89375 14.4067 4.60486 14.7421L10.1604 17.3583C10.8271 17.6746 11.6271 17.6746 12.2938 17.3583L17.8493 14.7421C18.5604 14.4067 19.0049 13.755 19.0049 13.0554V10.3625L12.2938 13.525C11.6271 13.8413 10.8271 13.8413 10.1604 13.525L3.44931 10.3625ZM10.1604 1.105L0.79375 5.51333C0.0270833 5.8775 0.0270833 6.83583 0.79375 7.2L10.1604 11.6083C10.8271 11.9246 11.6271 11.9246 12.2938 11.6083L21.2271 7.40125V13.065C21.2271 13.5921 21.7271 14.0233 22.3382 14.0233C22.9493 14.0233 23.4493 13.5921 23.4493 13.065V6.92208C23.4493 6.5675 23.2271 6.25125 22.8715 6.07875L12.2938 1.105C11.9655 0.95399 11.5991 0.875 11.2271 0.875C10.855 0.875 10.4887 0.95399 10.1604 1.105V1.105Z" fill="black"/>
</svg>
