<svg width="23" height="23" viewBox="0 0 23 23" fill="none" xmlns="http://www.w3.org/2000/svg">
<g clip-path="url(#clip0_327_25481)">
<path d="M7.47722 7.55109C7.13885 7.64673 6.829 7.82367 6.57467 8.06649C6.32034 8.30931 6.12925 8.61064 6.01806 8.94422L2.875 18.3731L3.36992 18.868L8.42732 13.8106C8.32658 13.5997 8.2656 13.3665 8.2656 13.1172C8.2656 12.2241 8.98962 11.5 9.88278 11.5C10.7759 11.5 11.5 12.2241 11.5 13.1172C11.5 14.0104 10.7759 14.7344 9.88278 14.7344C9.63346 14.7344 9.40032 14.6734 9.18941 14.5727L4.13202 19.6301L4.62694 20.125L14.0558 16.9819C14.3894 16.8707 14.6907 16.6797 14.9335 16.4253C15.1763 16.171 15.3533 15.8611 15.4489 15.5228L16.8906 10.4219L12.5781 6.10944L7.47722 7.55109ZM19.6512 5.37396L17.626 3.34878C16.9943 2.71707 15.9698 2.71707 15.3381 3.34878L13.4328 5.25402L17.746 9.56718L19.6512 7.66194C20.2829 7.03023 20.2829 6.00601 19.6512 5.37396Z" fill="black"/>
</g>
<defs>
<clipPath id="clip0_327_25481">
<rect width="17.25" height="17.25" fill="white" transform="translate(2.875 2.875)"/>
</clipPath>
</defs>
</svg>
