<svg width="279" height="51" viewBox="0 0 279 51" fill="none" xmlns="http://www.w3.org/2000/svg">
<path d="M2.37415 44.2388C3.26392 44.9903 4.0054 45.291 4.89518 45.291C6.37814 45.291 7.26791 44.3891 7.26791 42.2848C7.26791 40.6314 6.52643 39.5792 5.04347 38.978C2.67074 37.9258 1.48438 36.4228 1.48438 34.4687C1.48438 32.3644 2.81904 30.8613 5.04347 30.8613C6.22984 30.8613 7.26791 31.1619 8.15769 31.6129C8.45428 31.7632 8.60257 31.9135 8.60257 32.3644V32.5147C8.60257 32.9657 8.30598 33.116 7.86109 32.9657C6.82302 32.3644 6.08155 32.0638 5.19177 32.0638C4.0054 32.0638 3.26392 32.8153 3.26392 34.619C3.26392 36.1221 4.0054 37.1743 5.19177 37.7755C8.00939 38.978 9.04746 40.3308 9.04746 42.4351C9.04746 44.9903 7.7128 46.4934 5.04347 46.4934C4.0054 46.4934 2.96733 46.1928 2.07756 45.7419C1.78097 45.5916 1.78097 45.291 1.78097 44.9903V44.6897C1.78097 44.0885 2.07756 43.9382 2.37415 44.2388Z" fill="black"/>
<path d="M13.4983 40.9324C13.4983 44.0889 14.3881 45.4417 16.0193 45.4417C16.6125 45.4417 17.0574 45.2914 17.7989 44.9908C18.2438 44.8405 18.3921 44.9908 18.3921 45.4417C18.3921 45.7423 18.2438 45.8926 17.9472 46.0429C17.354 46.3436 16.6125 46.3435 15.871 46.3435C13.2017 46.3435 11.7188 44.3895 11.7188 40.7821C11.7188 37.1747 13.2017 35.2207 15.7227 35.2207C16.4642 35.2207 17.2057 35.371 17.7989 35.5213C18.0955 35.6716 18.2438 35.8219 18.2438 36.1226C18.2438 36.5735 17.9472 36.7238 17.5023 36.5735C16.9091 36.4232 16.3159 36.2729 15.7227 36.2729C14.3881 36.2729 13.4983 37.776 13.4983 40.9324Z" fill="black"/>
<path d="M22.2422 45.5915V31.3122C22.2422 30.8612 22.3905 30.7109 22.8354 30.7109H23.4286C23.7251 30.7109 24.0217 30.8612 24.0217 31.3122V36.7233C24.7632 35.9717 25.653 35.3705 26.5428 35.3705C28.7672 35.3705 29.5087 36.7233 29.5087 39.8798V45.7418C29.5087 46.1927 29.3604 46.343 28.9155 46.343H28.3223C28.0257 46.343 27.7291 46.1927 27.7291 45.7418V40.1804C27.7291 37.1742 27.2842 36.4227 26.0979 36.4227C25.2081 36.4227 23.8734 38.0761 23.8734 39.7295V45.5915C23.8734 46.0424 23.7251 46.1927 23.2803 46.1927H22.8354C22.3905 46.1927 22.2422 46.0424 22.2422 45.5915Z" fill="black"/>
<path d="M36.7773 35.3711C39.4466 35.3711 40.9296 37.4754 40.9296 40.9325C40.9296 44.3896 39.4466 46.4939 36.7773 46.4939C34.108 46.4939 32.625 44.3896 32.625 40.9325C32.625 39.2791 32.9216 37.9263 33.6631 36.8742C34.4046 35.9723 35.4426 35.3711 36.7773 35.3711ZM36.7773 45.4418C38.2602 45.4418 39.15 43.9387 39.15 40.9325C39.15 37.776 38.2602 36.4233 36.7773 36.4233C35.2943 36.4233 34.4046 37.9263 34.4046 40.9325C34.4046 43.9387 35.2943 45.4418 36.7773 45.4418Z" fill="black"/>
<path d="M47.6054 35.3711C50.2747 35.3711 51.7577 37.4754 51.7577 40.9325C51.7577 44.3896 50.2747 46.4939 47.6054 46.4939C44.9361 46.4939 43.4531 44.3896 43.4531 40.9325C43.4531 39.2791 43.7497 37.9263 44.4912 36.8742C45.0844 35.9723 46.2707 35.3711 47.6054 35.3711ZM47.6054 45.4418C49.0884 45.4418 49.9781 43.9387 49.9781 40.9325C49.9781 37.776 49.0884 36.4233 47.6054 36.4233C46.1224 36.4233 45.2327 37.9263 45.2327 40.9325C45.0844 43.9387 45.9742 45.4418 47.6054 45.4418Z" fill="black"/>
<path d="M56.7952 31.3122V45.5915C56.7952 46.0424 56.6469 46.1927 56.202 46.1927H55.6088C55.3122 46.1927 55.0156 46.0424 55.0156 45.5915V31.3122C55.0156 30.8612 55.1639 30.7109 55.6088 30.7109H56.202C56.6469 30.7109 56.7952 30.8612 56.7952 31.3122Z" fill="black"/>
<path d="M71.4765 46.1931H70.8833C70.4384 46.1931 70.2901 45.8924 70.4384 45.5918L74.2941 31.7634C74.4424 31.4628 74.5907 31.3125 74.8873 31.3125H75.7771C76.0737 31.3125 76.3703 31.4628 76.3703 31.7634L80.2259 45.5918C80.3742 46.0428 80.0777 46.1931 79.7811 46.1931H79.1879C78.8913 46.1931 78.5947 46.0427 78.5947 45.7421L77.5566 41.8341H73.256L72.218 45.7421C72.0697 46.0427 71.7731 46.1931 71.4765 46.1931ZM73.4043 40.6316H77.26L75.3322 33.1162L73.4043 40.6316Z" fill="black"/>
<path d="M84.678 40.9324C84.678 44.0889 85.5678 45.4417 87.199 45.4417C87.7922 45.4417 88.2371 45.2914 88.9786 44.9908C89.4235 44.8405 89.5718 44.9908 89.5718 45.4417C89.5718 45.7423 89.4235 45.8926 89.1269 46.0429C88.5337 46.3436 87.7922 46.3435 87.0507 46.3435C84.3814 46.3435 82.8984 44.3895 82.8984 40.7821C82.8984 37.1747 84.3814 35.2207 86.9024 35.2207C87.6439 35.2207 88.3854 35.371 88.9786 35.5213C89.2752 35.6716 89.4235 35.8219 89.4235 36.1226C89.4235 36.5735 89.1269 36.7238 88.682 36.5735C88.0888 36.4232 87.4956 36.2729 86.9024 36.2729C85.4195 36.2729 84.678 37.776 84.678 40.9324Z" fill="black"/>
<path d="M95.0601 31.9141H95.505C95.8016 31.9141 96.0982 32.0644 96.0982 32.5153V35.9724H98.6192C98.9158 35.9724 99.2124 36.1227 99.2124 36.5736C99.2124 36.8742 99.0641 37.0246 98.6192 37.0246H96.0982V42.8866C96.0982 44.9909 96.3948 45.4418 97.4328 45.4418C97.7294 45.4418 98.026 45.4418 98.3226 45.2915C98.7675 45.1412 98.9158 45.2915 98.9158 45.7425C98.9158 46.0431 98.7675 46.1934 98.4709 46.1934C98.026 46.3437 97.5811 46.3437 97.1362 46.3437C95.0601 46.3437 94.4669 45.4418 94.4669 42.8866V36.8742H93.1322C92.8357 36.8742 92.5391 36.7239 92.5391 36.273C92.5391 35.9724 92.6874 35.8221 93.1322 35.8221H94.4669V32.365C94.4669 32.2147 94.6152 31.9141 95.0601 31.9141Z" fill="black"/>
<path d="M103.367 35.5215H103.96C104.257 35.5215 104.553 35.6718 104.553 36.1227V41.9847C104.553 44.6903 105.146 45.4419 106.184 45.4419C107.222 45.4419 108.409 43.9388 108.409 42.1351V36.1227C108.409 35.6718 108.557 35.5215 109.002 35.5215H109.595C109.892 35.5215 110.188 35.6718 110.188 36.1227V45.5922C110.188 46.0431 110.04 46.1934 109.595 46.1934H109.15C108.854 46.1934 108.557 46.0431 108.557 45.5922V45.1412C107.964 45.8928 106.926 46.494 105.888 46.494C103.812 46.494 102.922 45.2915 102.922 42.2854V36.273C102.922 35.8221 103.07 35.5215 103.367 35.5215Z" fill="black"/>
<path d="M118.784 38.8282C118.784 36.8742 118.339 36.4233 117.004 36.4233C116.263 36.4233 115.373 36.5736 114.483 37.0245C114.039 37.1748 113.89 37.0245 113.89 36.5736C113.89 36.273 114.038 35.9723 114.335 35.9723C115.225 35.6717 116.115 35.3711 117.004 35.3711C119.674 35.3711 120.564 36.4233 120.564 39.2791V45.5921C120.564 46.043 120.415 46.1933 119.97 46.1933H119.525C119.229 46.1933 118.932 46.043 118.932 45.5921V44.9908C118.339 45.8927 117.301 46.4939 116.115 46.4939C114.483 46.4939 113.445 45.1412 113.445 43.3375C113.445 41.2331 114.928 39.5797 118.191 39.5797H118.932V38.8282H118.784ZM118.042 40.3313C116.115 40.3313 115.077 41.2331 115.077 43.0368C115.077 44.5399 115.67 45.2915 116.411 45.2915C117.746 45.2915 118.932 43.7884 118.932 41.5338V40.3313H118.042Z" fill="black"/>
<path d="M126.053 31.3122V45.5915C126.053 46.0424 125.905 46.1927 125.46 46.1927H124.867C124.57 46.1927 124.273 46.0424 124.273 45.5915V31.3122C124.273 30.8612 124.422 30.7109 124.867 30.7109H125.46C125.905 30.7109 126.053 30.8612 126.053 31.3122Z" fill="black"/>
<path d="M132.131 31.3122V32.0637C132.131 32.5146 131.983 32.665 131.538 32.665H130.945C130.648 32.665 130.352 32.5146 130.352 32.0637V31.3122C130.352 30.8612 130.5 30.7109 130.945 30.7109H131.538C131.983 30.7109 132.131 30.8612 132.131 31.3122ZM132.131 36.122V45.5915C132.131 46.0424 131.983 46.1927 131.538 46.1927H130.945C130.648 46.1927 130.352 46.0424 130.352 45.5915V36.122C130.352 35.6711 130.5 35.5208 130.945 35.5208H131.538C131.983 35.5208 132.131 35.8214 132.131 36.122Z" fill="black"/>
<path d="M136.141 35.9724C136.141 35.6718 136.289 35.5215 136.734 35.5215H142.369C142.666 35.5215 142.962 35.6718 142.962 36.1227C142.962 36.4233 142.962 36.5736 142.814 36.8743L138.068 45.2915H142.517C142.814 45.2915 143.111 45.4418 143.111 45.8928C143.111 46.1934 142.962 46.3437 142.517 46.3437H136.882C136.586 46.3437 136.289 46.1934 136.289 45.7425C136.289 45.4418 136.289 45.2915 136.437 44.9909L141.183 36.5736H136.734C136.437 36.5736 136.141 36.273 136.141 35.9724Z" fill="black"/>
<path d="M151.557 38.8282C151.557 36.8742 151.113 36.4233 149.778 36.4233C149.036 36.4233 148.147 36.5736 147.257 37.0245C146.812 37.1748 146.664 37.0245 146.664 36.5736C146.664 36.273 146.812 35.9723 147.109 35.9723C147.998 35.6717 148.888 35.3711 149.778 35.3711C152.447 35.3711 153.337 36.4233 153.337 39.2791V45.5921C153.337 46.043 153.189 46.1933 152.744 46.1933H152.299C152.002 46.1933 151.706 46.043 151.706 45.5921V44.9908C151.113 45.8927 150.074 46.4939 148.888 46.4939C147.257 46.4939 146.219 45.1412 146.219 43.3375C146.219 41.2331 147.702 39.5797 150.964 39.5797H151.706V38.8282H151.557ZM150.816 40.3313C148.888 40.3313 147.85 41.2331 147.85 43.0368C147.85 44.5399 148.443 45.2915 149.185 45.2915C150.519 45.2915 151.706 43.7884 151.706 41.5338V40.3313H150.816Z" fill="black"/>
<path d="M158.826 31.9141H159.419C159.716 31.9141 160.012 32.0644 160.012 32.5153V35.9724H162.533C162.83 35.9724 163.126 36.1227 163.126 36.5736C163.126 36.8742 162.978 37.0246 162.533 37.0246H160.012V42.8866C160.012 44.9909 160.309 45.4418 161.347 45.4418C161.643 45.4418 161.94 45.4418 162.237 45.2915C162.682 45.1412 162.83 45.2915 162.83 45.7425C162.83 46.0431 162.682 46.1934 162.385 46.1934C161.94 46.3437 161.495 46.3437 161.05 46.3437C158.974 46.3437 158.381 45.4418 158.381 42.8866V36.8742H157.046C156.75 36.8742 156.453 36.7239 156.453 36.273C156.453 35.9724 156.601 35.8221 157.046 35.8221H158.381V32.365C158.233 32.2147 158.529 31.9141 158.826 31.9141Z" fill="black"/>
<path d="M168.616 31.3122V32.0637C168.616 32.5146 168.467 32.665 168.022 32.665H167.429C167.133 32.665 166.836 32.5146 166.836 32.0637V31.3122C166.836 30.8612 166.984 30.7109 167.429 30.7109H168.022C168.467 30.7109 168.616 30.8612 168.616 31.3122ZM168.616 36.122V45.5915C168.616 46.0424 168.467 46.1927 168.022 46.1927H167.429C167.133 46.1927 166.836 46.0424 166.836 45.5915V36.122C166.836 35.6711 166.984 35.5208 167.429 35.5208H168.022C168.467 35.5208 168.616 35.8214 168.616 36.122Z" fill="black"/>
<path d="M176.324 35.3711C178.993 35.3711 180.476 37.4754 180.476 40.9325C180.476 44.3896 178.993 46.4939 176.324 46.4939C173.655 46.4939 172.172 44.3896 172.172 40.9325C172.172 39.2791 172.468 37.9263 173.21 36.8742C173.803 35.9723 174.99 35.3711 176.324 35.3711ZM176.324 45.4418C177.807 45.4418 178.697 43.9387 178.697 40.9325C178.697 37.776 177.807 36.4233 176.324 36.4233C174.841 36.4233 173.951 37.9263 173.951 40.9325C173.803 43.9387 174.693 45.4418 176.324 45.4418Z" fill="black"/>
<path d="M183.594 45.5921V36.1226C183.594 35.6717 183.742 35.5214 184.187 35.5214H184.632C184.928 35.5214 185.225 35.6717 185.225 36.1226V36.7239C185.966 35.9723 186.856 35.3711 187.894 35.3711C190.119 35.3711 190.86 36.7239 190.86 39.8804V45.7424C190.86 46.1933 190.712 46.3436 190.267 46.3436H189.674C189.377 46.3436 189.081 46.1933 189.081 45.7424V40.181C189.081 37.3251 188.488 36.4233 187.449 36.4233C186.56 36.4233 185.225 38.0767 185.225 39.73V45.7424C185.225 46.1933 185.077 46.3436 184.632 46.3436H184.039C183.742 46.1933 183.594 46.043 183.594 45.5921Z" fill="black"/>
<path d="M205.835 46.1928H205.242C204.945 46.1928 204.648 46.0425 204.648 45.5916V31.7632C204.648 31.3123 204.797 31.162 205.093 31.162C206.131 31.0116 207.169 30.8613 208.059 30.8613C211.173 30.8613 212.805 32.5147 212.805 35.3706C212.805 38.3768 211.173 40.1805 208.059 40.1805C207.466 40.1805 206.873 40.1805 206.28 40.0302V45.4413C206.428 46.0425 206.28 46.1928 205.835 46.1928ZM208.208 39.2786C210.135 39.2786 211.322 38.0762 211.322 35.6712C211.322 33.2663 210.284 32.0638 208.208 32.0638C207.614 32.0638 207.169 32.0638 206.576 32.2141V39.1283C207.021 39.1283 207.614 39.2786 208.208 39.2786Z" fill="black"/>
<path d="M217.108 46.1934H216.515C216.218 46.1934 215.922 46.0431 215.922 45.5922V36.1227C215.922 35.6718 216.07 35.5215 216.515 35.5215H217.108C217.405 35.5215 217.701 35.6718 217.701 36.1227V37.3252C218.443 36.273 219.778 35.5215 221.112 35.5215C221.409 35.5215 221.705 35.6718 221.705 36.1227C221.705 36.4233 221.557 36.7239 221.112 36.7239C219.036 36.7239 217.701 38.227 217.701 41.2332V45.7425C217.701 46.0431 217.553 46.1934 217.108 46.1934Z" fill="black"/>
<path d="M228.379 35.3711C231.048 35.3711 232.531 37.4754 232.531 40.9325C232.531 44.3896 231.048 46.4939 228.379 46.4939C225.71 46.4939 224.227 44.3896 224.227 40.9325C224.227 39.2791 224.523 37.9263 225.265 36.8742C226.006 35.9723 227.044 35.3711 228.379 35.3711ZM228.379 45.4418C229.862 45.4418 230.752 43.9387 230.752 40.9325C230.752 37.776 229.862 36.4233 228.379 36.4233C226.896 36.4233 226.006 37.9263 226.006 40.9325C226.006 43.9387 226.896 45.4418 228.379 45.4418Z" fill="black"/>
<path d="M241.72 35.5214H242.165C242.461 35.5214 242.758 35.6717 242.758 36.1226V45.7424C242.758 49.1995 241.572 50.8529 238.606 50.8529C237.864 50.8529 237.123 50.7026 236.381 50.5523C236.085 50.402 235.936 50.2517 235.936 49.951C235.936 49.5001 236.233 49.3498 236.53 49.5001C237.271 49.8007 237.864 49.951 238.457 49.951C240.089 49.951 240.83 48.7486 240.83 45.7424V45.1412C240.237 45.7424 239.347 46.1933 238.309 46.1933C236.085 46.1933 234.75 44.089 234.75 40.7822C234.75 37.1748 236.085 35.3711 238.309 35.3711C239.347 35.3711 240.237 35.822 240.83 36.5736V36.1226C241.127 35.822 241.423 35.5214 241.72 35.5214ZM238.902 36.273C237.568 36.273 236.678 37.776 236.678 40.6319C236.678 43.6381 237.568 45.1412 238.902 45.1412C239.94 45.1412 241.127 43.7884 241.127 41.9847V39.5797C241.127 37.6257 240.089 36.273 238.902 36.273Z" fill="black"/>
<path d="M247.655 46.1934H247.062C246.765 46.1934 246.469 46.0431 246.469 45.5922V36.1227C246.469 35.6718 246.617 35.5215 247.062 35.5215H247.655C247.952 35.5215 248.248 35.6718 248.248 36.1227V37.3252C248.99 36.273 250.324 35.5215 251.659 35.5215C251.956 35.5215 252.252 35.6718 252.252 36.1227C252.252 36.4233 252.104 36.7239 251.659 36.7239C249.583 36.7239 248.248 38.227 248.248 41.2332V45.7425C248.1 46.0431 247.952 46.1934 247.655 46.1934Z" fill="black"/>
<path d="M260.409 38.8282C260.409 36.8742 259.964 36.4233 258.629 36.4233C257.888 36.4233 256.998 36.5736 256.108 37.0245C255.663 37.1748 255.515 37.0245 255.515 36.5736C255.515 36.273 255.663 35.9723 255.96 35.9723C256.85 35.6717 257.74 35.3711 258.629 35.3711C261.299 35.3711 262.189 36.4233 262.189 39.2791V45.5921C262.189 46.043 262.04 46.1933 261.595 46.1933H261.15C260.854 46.1933 260.557 46.043 260.557 45.5921V44.9908C259.964 45.8927 258.926 46.4939 257.74 46.4939C256.108 46.4939 255.07 45.1412 255.07 43.3375C255.07 41.2331 256.553 39.5797 259.816 39.5797H260.557V38.8282H260.409ZM259.519 40.3313C257.591 40.3313 256.553 41.2331 256.553 43.0368C256.553 44.5399 257.146 45.2915 257.888 45.2915C259.223 45.2915 260.409 43.7884 260.409 41.5338V40.3313H259.519Z" fill="black"/>
<path d="M266.047 45.5921V36.1226C266.047 35.6717 266.195 35.5214 266.64 35.5214H267.233C267.53 35.5214 267.826 35.6717 267.826 36.1226V36.4233C268.271 35.822 269.013 35.3711 269.903 35.3711C270.941 35.3711 271.682 35.822 271.979 36.8742C272.572 35.9723 273.313 35.3711 274.351 35.3711C276.279 35.3711 277.021 36.5736 277.021 39.4294V45.5921C277.021 46.043 276.872 46.1933 276.428 46.1933H275.834C275.538 46.1933 275.241 46.043 275.241 45.5921V39.73C275.241 37.0245 274.796 36.273 273.907 36.273C273.313 36.273 272.275 37.6257 272.275 38.9785V45.5921C272.275 46.043 272.127 46.1933 271.682 46.1933H271.089C270.792 46.1933 270.496 46.043 270.496 45.5921V39.73C270.496 37.0245 270.051 36.273 269.161 36.273C268.568 36.273 267.53 37.6257 267.53 38.9785V45.5921C267.53 46.043 267.382 46.1933 266.937 46.1933H266.343C266.343 46.1933 266.047 46.043 266.047 45.5921Z" fill="black"/>
<path d="M5.19035 14.0276H5.48695C5.93183 13.5767 6.67331 12.9754 7.41479 11.9233H3.11421C2.66932 12.3742 1.92785 12.8251 1.03807 13.2761C0.593183 13.4264 0.296591 13.4264 0.148295 12.9755C-8.50765e-07 12.5245 -1.14909e-06 12.3742 0.444886 12.0736C1.92784 11.0214 3.4108 9.81897 5.04206 8.01526H0.593183C0.148295 8.01526 0 7.71464 0 7.41403C0 7.11341 0.296591 6.81279 0.593183 6.81279H3.7074V3.3557H1.63125C1.18637 3.3557 1.03807 3.05508 1.03807 2.75446C1.03807 2.45384 1.33466 2.30353 1.63125 2.30353H3.7074V0.950762C3.7074 0.499836 4.00399 0.349525 4.30058 0.349525H5.04206C5.48695 0.349525 5.63524 0.650145 5.63524 0.950762V2.30353H7.1182C7.56309 2.30353 7.71138 2.60415 7.71138 2.90477C7.71138 3.20538 7.41479 3.3557 7.1182 3.3557H5.63524V6.81279H5.93183C7.1182 5.3097 8.15627 3.506 9.04605 1.55199C9.19434 1.10106 9.49093 0.950757 9.93582 1.25137L10.2324 1.40168C10.6773 1.55199 10.6773 1.8526 10.529 2.30353C9.93582 3.65631 9.04604 5.15939 7.85968 6.81279H8.74945C9.19434 6.81279 9.34264 7.11341 9.34264 7.41403C9.34264 7.71464 9.04605 8.01526 8.74945 8.01526H6.9699C6.37672 8.76681 5.48695 9.66866 4.44887 10.7208H8.60116C9.04604 10.7208 9.19434 11.0214 9.19434 11.322C9.19434 11.6227 9.19434 11.773 8.89775 12.0736C8.15627 13.1258 7.26649 14.1779 6.37672 15.0798C7.85968 14.9295 8.89775 14.7792 9.93582 14.6288C10.3807 14.6288 10.6773 14.7792 10.6773 15.2301C10.6773 15.5307 10.529 15.681 10.0841 15.8313C9.19434 16.2822 7.85968 16.2822 6.52502 16.4325V18.8375C6.52502 21.2424 6.37672 21.3927 4.30058 21.3927C3.85569 21.3927 3.26251 21.3927 2.37273 21.2424C1.92785 21.2424 1.77955 20.9418 1.77955 20.6412C1.77955 20.1903 2.07614 20.04 2.52103 20.04C3.26251 20.04 3.85569 20.1903 4.15228 20.1903C4.59717 20.1903 4.74547 20.04 4.74547 18.6872V16.5829C3.5591 16.5829 2.22444 16.7332 0.889774 16.7332C0.444887 16.7332 0.296591 16.5829 0.148295 16.1319C0.148295 15.8313 0.444887 15.681 0.889774 15.5307C2.22444 15.5307 3.4108 15.3804 4.74547 15.3804V14.7792C4.44887 14.3282 4.74547 14.0276 5.19035 14.0276ZM8.89775 20.04C10.6773 18.9878 12.012 17.635 13.1983 15.9816C12.3086 14.0276 11.7154 11.9233 11.4188 9.21774C11.2705 9.81897 11.1222 10.2699 10.8256 10.7208C10.6773 11.1717 10.2324 11.1717 9.93582 10.8711L9.49093 10.4202C9.19434 10.1196 9.04604 9.81897 9.34264 9.51835C10.3807 7.11341 11.1222 4.25754 11.8637 0.800444C11.8637 0.349518 12.1603 0.199219 12.6051 0.199219L13.1983 0.349525C13.6432 0.349525 13.7915 0.650142 13.7915 1.10107C13.6432 1.85261 13.4949 2.75446 13.1983 3.65631H18.3887C18.8336 3.65631 18.9819 3.95693 18.9819 4.25755C18.9819 4.70847 18.6853 4.85878 18.3887 4.85878H18.0921C17.6472 9.66866 16.9057 13.1258 15.2745 15.8313C16.1642 17.3344 17.054 18.6872 18.3887 19.7393C18.6853 20.04 18.6853 20.3406 18.537 20.6412V20.7915C18.3887 21.2424 17.9438 21.3927 17.6472 20.9418C16.1642 19.7393 14.9779 18.5369 14.2364 17.3344C13.1983 18.5369 11.7154 19.8896 9.78753 20.9418C9.34264 21.0921 9.04605 21.0921 8.89775 20.6412C8.30457 20.6412 8.45286 20.3406 8.89775 20.04ZM13.05 8.01526C13.3466 10.4202 13.6432 12.5245 14.2364 14.0276C14.9779 12.0736 15.5711 9.06742 16.0159 5.3097H12.6051C12.6051 5.61032 12.3086 6.21156 12.012 7.26372H12.3086C12.7534 6.9631 12.9017 7.41403 13.05 8.01526Z" fill="black"/>
<path d="M41.8188 3.05516C41.8188 3.35578 41.5222 3.50609 41.2256 3.50609H31.4381C30.9932 4.40794 30.5483 5.4601 29.6585 6.81287C32.4762 6.66257 35.1455 6.36195 37.8148 6.06133C37.5182 5.76071 37.2216 5.4601 37.0733 5.15948C36.7767 4.85886 36.7767 4.55825 37.0733 4.25763L37.2216 4.10733C37.5182 3.80671 37.8148 3.80671 38.1114 4.10733C39.2978 5.30979 40.1875 6.36195 41.0773 7.41411C41.3739 7.71473 41.3739 8.01534 40.929 8.31596L40.7807 8.76689C40.4841 9.06751 40.1875 9.06751 39.8909 8.61658C39.5944 8.16566 39.1495 7.71473 38.7046 7.2638C33.8108 7.86504 29.2136 8.16565 25.0614 8.31596C24.6165 8.31596 24.4682 8.16566 24.3199 7.71473C24.3199 7.41412 24.4682 7.26381 24.9131 7.1135L27.5824 6.96319C28.0273 6.06134 28.7688 5.00917 29.3619 3.50609H24.4682C24.0233 3.50609 23.875 3.20547 23.875 2.90485C23.875 2.60423 24.1716 2.45393 24.4682 2.45393H31.7347V0.950846C31.7347 0.49992 32.0313 0.349609 32.3279 0.349609H33.2176C33.6625 0.349609 33.8108 0.650229 33.8108 0.950846V2.45393H41.0773C41.6705 2.45393 41.8188 2.60423 41.8188 3.05516ZM27.1375 21.5431H26.396C25.9511 21.5431 25.8028 21.2425 25.8028 20.9419V10.4203C25.8028 9.96936 26.0994 9.81905 26.396 9.81905H39.2978C39.7426 9.81905 39.8909 10.1197 39.8909 10.4203V19.2885C39.8909 21.0922 39.5944 21.3928 37.2216 21.3928C36.6284 21.3928 35.887 21.3928 34.8489 21.2425C34.404 21.2425 34.2557 20.9419 34.2557 20.491C34.2557 20.04 34.5523 19.8897 34.9972 19.8897C35.887 19.8897 36.3318 20.04 36.925 20.04C37.8148 20.04 37.9631 20.1903 37.9631 19.1382V17.7854H27.879V20.9419C27.879 21.3928 27.5824 21.5431 27.1375 21.5431ZM27.879 13.2761H37.9631V11.0215H27.879V13.2761ZM27.879 14.3283V16.7333H37.9631V14.3283H27.879Z" fill="black"/>
<path d="M58.1306 9.66874C58.1306 10.1197 57.834 10.27 57.5374 10.27H48.1947C47.7499 10.27 47.6016 9.96936 47.6016 9.66874C47.6016 9.21781 47.8982 9.0675 48.1947 9.0675H50.1226C49.6777 7.2638 49.3811 5.4601 48.9362 3.8067H48.343C47.8982 3.8067 47.7499 3.50609 47.7499 3.20548C47.7499 2.90486 48.0464 2.60424 48.343 2.60424H51.7538V0.950846C51.7538 0.49992 52.0504 0.349609 52.347 0.349609H53.0885C53.5334 0.349609 53.6817 0.650229 53.6817 0.950846V2.60424H57.0925C57.5374 2.60424 57.6857 2.90486 57.6857 3.20548C57.6857 3.50609 57.3891 3.8067 57.0925 3.8067H56.9442C56.6476 5.4601 56.351 7.2638 55.7578 9.0675H57.5374C57.9823 9.0675 58.1306 9.21781 58.1306 9.66874ZM55.1646 21.0922V20.7916H50.7158V21.0922C50.7158 21.5431 50.4192 21.6934 50.1226 21.6934H49.3811C48.9362 21.6934 48.7879 21.3928 48.7879 21.0922V13.4265C48.7879 12.9755 49.0845 12.8252 49.3811 12.8252H56.4993C56.9442 12.8252 57.0925 13.1258 57.0925 13.4265V21.0922C57.0925 21.5431 56.7959 21.6934 56.4993 21.6934H55.9061C55.4612 21.6934 55.1646 21.5431 55.1646 21.0922ZM55.1646 19.5891V14.0277H50.7158V19.5891H55.1646ZM55.0164 3.8067H50.8641C51.309 5.6104 51.7538 7.41411 52.0504 9.0675H53.83C54.2749 7.56442 54.7198 5.76071 55.0164 3.8067ZM65.6937 3.05516C65.1005 5.00917 64.359 7.2638 63.1726 9.51843C64.9522 11.3221 65.8419 13.4265 65.8419 15.6811C65.8419 18.086 64.8039 19.2885 62.4311 19.2885H61.838C61.3931 19.2885 61.2448 19.1382 61.0965 18.6873C61.0965 18.2363 61.2448 18.086 61.6897 18.086C63.3209 18.086 63.7658 17.6351 63.7658 15.6811C63.7658 13.5768 62.876 11.6228 61.5414 9.96937C61.2448 9.66875 61.2448 9.36812 61.3931 9.0675C62.2828 7.2638 63.0243 5.00918 63.7658 2.75455H60.355V21.2425C60.355 21.6934 60.0584 21.8437 59.7618 21.8437H59.1686C58.7237 21.8437 58.5754 21.5431 58.5754 21.2425V2.15331C58.5754 1.70238 58.872 1.55207 59.1686 1.55207H65.1005C65.5454 1.55207 65.6937 1.85269 65.6937 2.15331V2.30361C65.8419 2.60423 65.8419 2.75454 65.6937 3.05516Z" fill="black"/>
<path d="M79.9294 0.349609H80.6709C81.1158 0.349609 81.2641 0.650229 81.2641 0.950846V2.45393H88.3823C88.8272 2.45393 88.9755 2.75454 88.9755 3.05516C88.9755 3.50608 88.6789 3.65639 88.3823 3.65639H72.0697C71.6249 3.65639 71.4766 3.35578 71.4766 3.05516C71.4766 2.60423 71.7732 2.45393 72.0697 2.45393H79.1879V0.950846C79.3362 0.49992 79.4845 0.349609 79.9294 0.349609ZM73.4044 21.5431H72.8112C72.3663 21.5431 72.218 21.2425 72.218 20.9419V12.3743C72.218 11.9234 72.5146 11.7731 72.8112 11.7731H88.0857C88.5306 11.7731 88.6789 12.0737 88.6789 12.3743V18.6873C88.6789 21.2425 88.5306 21.5431 86.3062 21.5431C86.0096 21.5431 85.4164 21.5431 84.5266 21.3928C84.0817 21.3928 83.9334 21.0922 83.9334 20.7916C83.9334 20.3407 84.0817 20.1903 84.6749 20.1903C85.4164 20.1903 85.8613 20.1903 86.1578 20.1903C87.0476 20.1903 86.8993 20.04 86.8993 18.6873V12.8252H74.2942V20.9419C73.9976 21.3928 73.701 21.5431 73.4044 21.5431ZM86.4544 6.06133V9.36813C86.4544 9.81905 86.1579 9.96936 85.8613 9.96936H75.0357C74.5908 9.96936 74.4425 9.66875 74.4425 9.36813V6.06133C74.4425 5.6104 74.7391 5.46011 75.0357 5.46011H85.8613C86.1579 5.3098 86.4544 5.6104 86.4544 6.06133ZM76.9635 20.1903H76.222C75.7771 20.1903 75.6288 19.8897 75.6288 19.5891V15.2302C75.6288 14.7792 75.9254 14.6289 76.222 14.6289H84.3783C84.8232 14.6289 84.9715 14.9295 84.9715 15.2302V18.537C84.9715 18.9879 84.6749 19.1382 84.3783 19.1382H77.5567V19.7394C77.5567 20.04 77.2601 20.1903 76.9635 20.1903ZM76.3703 8.9172H84.3783V6.51226H76.3703V8.9172ZM77.5567 18.086H83.0436V15.6811H77.5567V18.086Z" fill="black"/>
<path d="M103.064 21.5433V14.1782H97.7249V15.08C97.7249 15.5309 97.4283 15.6813 97.1317 15.6813H96.5385C96.0936 15.6813 95.9453 15.3806 95.9453 15.08V5.30996C95.9453 4.85903 96.2419 4.70873 96.5385 4.70873H103.064V1.25163C103.064 0.800702 103.36 0.650391 103.657 0.650391H104.398C104.843 0.650391 104.991 0.95101 104.991 1.25163V4.70873H111.516C111.961 4.70873 112.11 5.00934 112.11 5.30996V15.08C112.11 15.5309 111.813 15.6813 111.516 15.6813H110.923C110.478 15.6813 110.33 15.3806 110.33 15.08V14.1782H104.991V21.5433C104.991 21.9942 104.695 22.1445 104.398 22.1445H103.657C103.212 22.1445 103.064 21.9942 103.064 21.5433ZM97.7249 12.8254H103.064V5.91119H97.7249V12.8254ZM105.14 12.8254H110.33V5.91119H104.991V12.8254H105.14Z" fill="black"/>
<path d="M121.16 21.9943H120.716C120.271 21.9943 120.122 21.6937 120.122 21.3931V11.623C119.826 12.0739 119.677 12.3745 119.529 12.8255C119.233 13.4267 118.788 13.2764 118.639 12.6752L118.491 12.2242C118.343 11.9236 118.491 11.623 118.639 11.3224C119.974 8.76714 121.012 5.31004 121.754 1.40202C121.754 0.951092 122.05 0.800781 122.495 0.800781H122.94C123.385 0.800781 123.533 1.1014 123.533 1.55232C123.237 3.50634 122.792 5.46035 122.05 7.41436V21.2428C121.754 21.6937 121.605 21.9943 121.16 21.9943ZM122.643 21.0924C122.643 20.6415 122.792 20.3409 123.237 20.3409C125.313 20.0403 126.944 19.89 128.575 19.2887C127.982 18.9881 127.389 18.5372 126.796 18.2366C126.351 17.936 126.351 17.6353 126.796 17.3347C127.092 17.0341 127.389 17.0341 127.685 17.3347C128.427 17.936 129.168 18.3869 129.91 18.6875C130.948 18.2366 131.838 17.485 132.876 16.7335H126.351C125.609 17.3347 124.571 17.936 123.385 18.5372C122.94 18.6875 122.643 18.5372 122.495 18.0863C122.347 17.7857 122.495 17.485 122.94 17.3347C124.275 16.7335 125.609 15.8316 126.796 14.7795C126.202 14.4789 126.202 14.1782 126.202 13.577V12.3746C126.202 11.9236 126.499 11.7733 126.796 11.7733H127.241C127.685 11.7733 127.834 12.0739 127.834 12.3746V12.9758C127.834 13.577 127.982 13.7273 127.982 13.7273C128.13 13.7273 130.206 13.577 130.503 13.577C130.948 13.577 131.245 13.577 131.541 13.4267C131.838 13.2764 131.986 12.9758 131.986 12.6752V12.2242C131.986 12.2242 132.283 11.7733 132.728 11.7733H133.321L133.766 11.3224C134.062 11.0218 134.359 11.0218 134.655 11.4727C134.804 11.623 134.952 11.7733 134.952 12.0739V10.4205H124.275V11.9236C124.275 11.9236 124.275 11.7733 124.423 11.7733C124.571 11.3224 125.016 11.1721 125.313 11.623H125.461C125.758 11.9236 125.906 12.2242 125.609 12.5249C125.164 13.2764 124.72 14.0279 124.126 14.7795C123.83 15.0801 123.533 15.0801 123.237 14.7795C122.94 14.4789 122.94 14.1783 123.237 13.8776L123.978 12.8255H123.237C122.792 12.8255 122.643 12.5249 122.643 12.2242V10.1199C122.643 9.669 122.94 9.51869 123.237 9.51869H124.126V4.40819C124.126 3.95726 124.423 3.80695 124.72 3.80695H128.427L128.872 2.60449H124.126C123.681 2.60449 123.533 2.30387 123.533 2.00325C123.533 1.70264 123.83 1.55232 124.126 1.55232H135.842C136.287 1.55232 136.435 1.85294 136.435 2.15356C136.435 2.45418 136.138 2.60449 135.842 2.60449H130.651L130.206 3.80695H134.952C135.397 3.80695 135.545 4.10757 135.545 4.40819V9.51869H136.435C136.88 9.51869 137.028 9.8193 137.028 10.1199V12.2242C137.028 12.6752 136.731 12.8255 136.435 12.8255H135.842C136.138 13.2764 136.287 13.7273 136.583 14.0279C136.731 14.3286 136.731 14.6292 136.435 14.9298L136.287 15.0801C135.99 15.3807 135.545 15.3807 135.397 14.9298C134.952 14.1782 134.507 13.4267 134.21 12.8255C134.21 13.2764 134.062 13.4267 133.766 13.8776C133.617 14.1783 132.579 14.1782 131.838 14.3286C131.541 14.3286 130.948 14.3286 130.058 14.3286C129.91 14.3286 128.872 14.3286 128.872 14.3286C128.872 14.3286 128.575 14.7795 127.982 15.3807H134.655C135.1 15.3807 135.249 15.6813 135.249 15.982C135.249 16.1323 135.1 16.2826 134.952 16.5832C134.21 17.3347 133.172 18.0863 131.838 18.8378C133.617 19.439 135.249 19.7397 137.028 20.0403C137.473 20.0403 137.621 20.3409 137.621 20.7918C137.621 21.2428 137.325 21.3931 136.88 21.3931C134.507 21.0925 132.431 20.4912 130.355 19.5894C128.427 20.4912 126.202 21.0925 123.83 21.3931C122.94 21.6937 122.643 21.5434 122.643 21.0924V20.7918V21.0924ZM126.202 6.2119H133.469V5.00943H126.202V6.2119ZM126.202 6.81313V8.16591H133.469V6.81313H126.202ZM126.202 8.61684V9.96962H133.469V8.61684H126.202ZM129.02 11.3224C129.168 11.0218 129.465 11.0218 129.762 11.3224C130.355 11.623 130.8 11.9236 131.245 12.0739C131.541 12.2242 131.689 12.6752 131.541 12.9758C131.393 13.2764 131.096 13.2764 130.8 13.1261C130.355 12.8255 129.91 12.5249 129.317 12.2242C128.872 12.0739 128.724 11.7733 129.02 11.3224Z" fill="black"/>
<path d="M150.964 4.10722C151.409 4.10722 151.558 4.40784 151.558 4.70846C151.558 5.00907 151.261 5.15937 150.964 5.15937H149.926V6.66246C149.926 7.11339 149.63 7.2637 149.333 7.2637H148.74C148.295 7.2637 148.147 6.96308 148.147 6.66246V5.15937H145.922C145.774 6.06123 145.478 6.96308 145.033 8.01524H158.083C158.528 8.01524 158.676 8.31586 158.676 8.61648V17.0338C158.676 17.4847 158.379 17.635 158.083 17.635H144.884C144.439 17.635 144.291 17.3344 144.291 17.0338V9.21771C144.143 9.36802 143.995 9.51832 143.846 9.66863C143.55 10.1196 143.105 9.96925 142.956 9.51833L142.66 8.91709C142.512 8.61647 142.512 8.31586 142.808 8.01524C143.55 6.66246 144.143 4.85876 144.143 2.30351C144.143 1.85258 144.439 1.70227 144.884 1.55196C147.109 1.55196 149.037 1.25135 150.964 0.650115C151.409 0.499806 151.706 0.65012 151.706 1.10105C151.706 1.40166 151.706 1.70228 151.261 1.70228C149.63 2.15321 147.999 2.30352 145.774 2.45383V3.65629H150.964V4.10722ZM149.778 19.7393C148.443 20.6412 146.219 21.0921 143.698 21.6933C143.253 21.8436 142.956 21.6933 142.956 21.2424V21.0921C142.808 20.6412 142.957 20.3405 143.401 20.3405C145.181 19.8896 147.109 19.2884 148.888 18.3865C149.333 18.2362 149.63 18.3865 149.778 18.6872L149.926 18.9878C150.075 19.4387 150.075 19.7393 149.778 19.7393ZM146.367 11.0214H156.748V9.21771H146.367V11.0214ZM146.367 12.0736V14.0276H156.748V12.0736H146.367ZM146.367 14.9294V16.7331H156.748V14.9294H146.367ZM160.752 4.70846C160.752 5.00907 160.455 5.15937 160.159 5.15937H158.231V6.66246C158.231 7.11339 157.934 7.2637 157.638 7.2637H157.045C156.6 7.2637 156.451 6.96308 156.451 6.66246V5.15937H154.227C154.079 5.91092 153.93 6.51216 153.485 7.11339C153.337 7.56432 152.892 7.56431 152.596 7.414L152.299 7.2637C151.854 7.11339 151.854 6.81277 152.003 6.36185C152.299 5.46 152.596 4.25753 152.596 2.45383C152.596 2.0029 152.892 1.85259 153.337 1.70228C155.562 1.70228 157.489 1.40166 159.417 0.800421C159.862 0.650113 160.159 0.800426 160.159 1.25135C160.159 1.55197 160.011 1.85259 159.566 2.0029C158.083 2.30351 156.303 2.60413 154.375 2.75444C154.375 2.75444 154.375 2.90475 154.375 3.95691H160.307C160.455 4.10722 160.752 4.40784 160.752 4.70846ZM159.269 21.6933C157.638 20.9418 155.71 20.1902 153.634 19.589C153.189 19.4387 153.041 19.1381 153.189 18.8375V18.6872C153.189 18.2362 153.634 18.0859 154.079 18.2362C157.193 19.1381 158.676 19.7393 159.862 20.1902C160.307 20.3405 160.307 20.6412 160.159 21.0921L160.011 21.543C160.011 21.8436 159.714 21.9939 159.269 21.6933Z" fill="black"/>
<path d="M170.539 21.9943H169.797C169.352 21.9943 169.204 21.6937 169.204 21.3931V10.5708C168.611 11.623 168.018 12.5249 167.424 13.4267C167.128 13.8776 166.683 13.7273 166.535 13.2764L166.238 12.8255C166.09 12.5249 166.09 12.2242 166.386 11.9236C168.462 9.21807 169.945 5.61066 170.984 1.40202C171.132 0.951092 171.428 0.800781 171.725 0.800781L172.318 0.951099C172.763 1.10141 172.911 1.25172 172.911 1.70264C172.615 3.35604 172.022 5.00942 171.428 6.66282V21.2428C171.28 21.6937 170.984 21.9943 170.539 21.9943ZM175.284 1.10141H176.026C176.47 1.10141 176.619 1.40202 176.619 1.70264V8.76714C178.398 7.71498 180.326 6.06158 182.402 3.80695C182.699 3.50634 183.144 3.50634 183.292 3.80695L183.44 4.10758C183.589 4.40819 183.589 4.70881 183.292 5.00943C181.068 7.26406 178.843 9.06776 176.47 10.4205V17.936C176.47 19.89 176.47 19.89 177.212 20.0403C177.805 20.0403 178.25 20.1906 178.843 20.1906C180.178 20.1906 181.216 20.3409 181.661 18.9881C181.809 18.5372 181.957 17.0341 181.957 14.3286C181.957 13.8776 182.254 13.577 182.699 13.577H183.292C183.737 13.577 183.885 13.8776 183.885 14.3286C183.737 16.5832 183.737 17.485 183.589 18.6875C183.44 19.89 183.44 20.0403 182.847 20.6415C182.402 21.0925 181.957 21.0925 181.068 21.2428C180.474 21.2428 179.881 21.3931 178.991 21.3931C177.36 21.3931 175.284 21.3931 174.988 20.6415C174.691 20.1906 174.543 19.439 174.543 18.0863V1.55232C174.691 1.25171 174.987 1.10141 175.284 1.10141Z" fill="black"/>
<path d="M190.858 15.3804C190.413 15.3804 190.265 15.0797 190.265 14.7791V7.26369C190.265 6.81276 190.562 6.66245 190.858 6.66245H192.935V4.25752H190.413C189.969 4.25752 189.82 3.9569 189.82 3.65628C189.82 3.35566 190.117 3.20536 190.413 3.20536H192.935V1.25134C192.935 0.800417 193.231 0.650107 193.528 0.650107H194.121C194.566 0.650107 194.714 0.950726 194.714 1.25134V2.90474H196.938C197.383 2.90474 197.532 3.20536 197.532 3.50597C197.532 3.80659 197.235 3.9569 196.938 3.9569H194.862V6.36184H196.938C197.383 6.36184 197.532 6.66246 197.532 6.96308V14.4785C197.532 14.9294 197.235 15.0797 196.938 15.0797H194.862V17.7853H197.087C197.532 17.7853 197.68 18.0859 197.68 18.3865C197.68 18.6871 197.383 18.9878 197.087 18.9878H194.862V21.3927C194.862 21.8436 194.566 21.9939 194.269 21.9939H193.676C193.231 21.9939 193.083 21.6933 193.083 21.3927V18.9878H190.413C189.969 18.9878 189.82 18.6871 189.82 18.3865C189.82 18.0859 190.117 17.7853 190.413 17.7853H192.935V15.3804H190.858ZM191.896 10.2699H192.935V7.5643H191.896V10.2699ZM191.896 14.1779H192.935V11.322H191.896V14.1779ZM195.752 10.2699V7.5643H194.714V10.2699H195.752ZM195.752 11.322H194.714V14.1779H195.752V11.322ZM204.057 1.10104V2.45382H205.688L204.798 1.40165C204.502 1.10103 204.65 0.800417 204.946 0.4998H205.095C205.391 0.199183 205.688 0.349489 205.985 0.650107C206.578 1.40165 207.171 2.00289 207.616 2.60412C208.061 2.60412 208.209 2.90474 208.209 3.20536C208.209 3.50598 207.912 3.80659 207.616 3.80659H203.908V6.36184H207.171C207.616 6.36184 207.764 6.66246 207.764 6.96308V18.9878C207.764 21.3927 207.616 21.8436 205.985 21.8436C205.688 21.8436 205.391 21.8436 205.095 21.8436C204.65 21.8436 204.502 21.543 204.502 21.0921C204.502 20.7915 204.65 20.4909 205.095 20.6412C205.391 20.6412 205.54 20.6412 205.688 20.6412H205.836C205.836 20.6412 205.836 20.4908 205.836 20.3405C205.836 20.3405 205.836 19.7393 205.836 19.1381V16.2822H203.908V20.6412C203.908 21.0921 203.612 21.2424 203.315 21.2424H202.722C202.277 21.2424 202.129 20.9418 202.129 20.6412V16.2822H200.201V21.0921C200.201 21.543 199.904 21.6933 199.608 21.6933H199.015C198.57 21.6933 198.421 21.3927 198.421 21.0921V6.81276C198.421 6.36183 198.718 6.21153 199.015 6.21153H202.277V3.65628H198.866C198.421 3.65628 198.273 3.35566 198.273 3.05504C198.273 2.75443 198.57 2.45382 198.866 2.45382H202.277V1.10104C202.277 0.650111 202.574 0.4998 202.87 0.4998H203.464C203.76 0.4998 204.057 0.80042 204.057 1.10104ZM202.129 10.5705V7.41399H200.201V10.5705H202.129ZM202.129 11.6226H200.201V15.2301H202.129V11.6226ZM204.057 10.5705H205.985V7.41399H204.057V10.5705ZM204.057 11.6226V15.2301H205.985V11.6226H204.057Z" fill="black"/>
<path d="M215.326 2.00326H221.11C221.555 2.00326 221.703 2.30387 221.703 2.60449V16.7335C222.148 16.5832 222.445 16.7335 222.445 17.1844C222.445 17.485 222.296 17.7857 222 17.936C219.775 18.9881 217.106 19.89 214.288 20.6415C213.843 20.7918 213.547 20.4912 213.547 20.0403C213.547 19.7397 213.695 19.4391 214.14 19.2887L214.733 19.1384V2.7548C214.585 2.30387 214.882 2.00326 215.326 2.00326ZM216.513 7.56467H219.775V3.35603H216.513V7.56467ZM216.513 8.61684V13.1261H219.775V8.61684H216.513ZM216.513 18.8378C217.551 18.5372 218.737 18.0863 219.775 17.6354V14.1783H216.513V18.8378ZM231.491 6.36221C231.491 11.1721 231.491 14.0279 231.342 16.4329C231.194 17.6354 231.194 18.5372 231.046 19.2887C230.897 20.3409 230.453 21.0925 229.711 21.2428C229.563 21.2428 229.118 21.3931 228.673 21.3931C228.08 21.3931 227.19 21.3931 226.3 21.2428C225.855 21.2428 225.707 20.9421 225.707 20.4912C225.707 20.0403 226.152 19.89 226.893 19.89C227.487 20.0403 228.08 20.0403 228.376 20.0403C228.673 20.0403 228.821 19.7397 228.97 18.8378C228.97 18.5372 229.118 17.7857 229.266 16.7335C229.415 14.9298 229.415 11.7733 229.415 6.81313H226.597C226.3 14.0279 225.262 17.7857 222.889 21.3931C222.593 21.6937 222.296 21.844 222 21.5434L221.703 21.2428C221.407 20.9421 221.258 20.6415 221.555 20.3409C223.483 17.3347 224.521 13.7273 224.817 6.81313H223.038C222.593 6.81313 222.445 6.51252 222.445 6.2119C222.445 5.76098 222.741 5.61066 223.038 5.61066H224.817C224.817 4.4082 224.817 2.9051 224.817 1.40202C224.817 0.951092 225.114 0.800781 225.411 0.800781H226.152C226.597 0.800781 226.745 1.1014 226.745 1.40202C226.745 2.60449 226.745 3.95727 226.745 5.61066H230.897C231.342 5.61066 231.491 5.91128 231.491 6.36221Z" fill="black"/>
<path d="M253.29 17.3346C252.845 20.3408 251.955 21.0924 249.879 21.0924C249.137 21.0924 247.951 21.0924 246.32 20.9421C245.875 20.9421 245.727 20.6414 245.727 20.1905C245.727 19.7396 246.023 19.439 246.468 19.5893C247.951 19.7396 248.989 19.7396 249.731 19.7396C250.62 19.7396 250.917 19.1384 251.362 16.4328C251.51 15.2303 251.658 13.2763 251.658 10.7211V10.4205H244.985C244.392 15.2303 243.057 18.2365 239.646 21.393C239.35 21.6936 239.053 21.6936 238.757 21.2427L238.46 20.9421C238.163 20.6414 238.312 20.3408 238.608 20.0402C240.833 17.9359 242.019 15.531 242.761 12.2242C243.057 10.4205 243.206 8.01551 243.206 5.15965H238.163C237.719 5.15965 237.57 4.85903 237.57 4.55841C237.57 4.10749 237.867 3.95719 238.163 3.95719H245.43V1.25163C245.43 0.800702 245.727 0.650391 246.023 0.650391H246.765C247.21 0.650391 247.358 0.95101 247.358 1.25163V3.95719H254.624C255.069 3.95719 255.218 4.2578 255.218 4.55841C255.218 5.00934 254.921 5.15965 254.624 5.15965H244.985C244.985 6.81304 244.985 8.01551 244.837 9.06767H252.845C253.29 9.06767 253.438 9.36829 253.438 9.66891V9.96953C253.735 13.2763 253.586 15.6813 253.29 17.3346Z" fill="black"/>
<path d="M261.446 15.0797C261.446 14.6288 261.743 14.4785 262.039 14.4785H269.009V13.4263C269.009 12.9754 269.306 12.8251 269.602 12.8251H270.344C270.789 12.8251 270.937 13.1257 270.937 13.4263V14.4785H277.907C278.352 14.4785 278.5 14.7791 278.5 15.0797C278.5 15.3803 278.203 15.6809 277.907 15.6809H271.53C273.31 17.4846 275.534 18.9877 278.5 20.1902C278.945 20.3405 279.093 20.6411 278.945 21.092C278.797 21.543 278.5 21.6933 278.055 21.3927C275.089 20.0399 272.717 18.3865 271.085 16.8834V21.092C271.085 21.543 270.789 21.6933 270.492 21.6933H269.751C269.306 21.6933 269.157 21.3927 269.157 21.092V16.8834C267.526 18.5368 265.153 20.0399 262.188 21.3927C261.743 21.543 261.446 21.3927 261.298 21.092C261.15 20.6411 261.298 20.4908 261.743 20.1902C264.56 18.9877 266.785 17.4846 268.713 15.6809H262.336C261.743 15.8312 261.446 15.5306 261.446 15.0797ZM278.797 6.3618C278.797 6.66242 278.5 6.96304 278.203 6.96304H275.238C274.644 8.1655 273.606 9.51827 272.272 10.5704C274.051 11.1717 275.831 11.9232 277.61 12.8251C278.055 12.9754 278.055 13.4263 277.907 13.7269C277.759 14.1778 277.314 14.1778 277.017 14.0275C274.793 12.9754 272.865 12.0735 271.085 11.4723C269.306 12.5245 266.785 13.276 263.374 13.8772C262.929 13.8772 262.632 13.7269 262.632 13.276C262.484 12.8251 262.781 12.6748 263.226 12.5245C265.895 12.0735 267.971 11.4723 269.454 10.7208C268.268 10.4201 267.23 10.1195 266.34 9.96921C266.192 10.1195 266.043 10.2698 265.895 10.4201C265.598 10.7207 265.302 10.7207 265.005 10.4201L264.857 10.2698C264.412 9.9692 264.412 9.66859 264.857 9.36797C265.598 8.76674 266.34 7.86489 267.081 6.96304H262.781C262.336 6.96304 262.188 6.66242 262.188 6.3618C262.188 6.06118 262.484 5.76056 262.781 5.76056H267.971C268.416 5.15933 268.713 4.70841 269.157 3.95686C269.306 3.65624 269.602 3.50593 270.047 3.50593L270.64 3.65624C271.085 3.65624 271.234 4.10717 270.937 4.85871C270.64 5.30964 270.492 5.61025 270.344 5.91087H278.797C278.5 5.76056 278.797 5.91087 278.797 6.3618ZM277.759 5.15932H277.017C276.572 5.15932 276.424 4.8587 276.424 4.55809V3.055H263.819V4.55809C263.819 5.00901 263.522 5.15932 263.226 5.30963H262.484C262.039 5.30963 261.891 5.00902 261.891 4.70841V2.75439C261.891 2.30346 262.188 2.15315 262.484 2.15315H269.157V0.650065C269.157 0.199139 269.454 0.0488281 269.751 0.0488281H270.492C270.937 0.0488281 271.085 0.349448 271.085 0.650065V2.15315H277.759C278.203 2.15315 278.352 2.45377 278.352 2.75439V4.70841C278.5 5.00902 278.203 5.30963 277.759 5.15932ZM266.933 9.06735C268.416 9.36796 269.602 9.66859 270.64 10.1195C271.678 9.51828 272.568 8.46612 273.458 6.96304H268.713C268.416 7.41396 267.823 8.16549 266.933 9.06735Z" fill="black"/>
</svg>
