<svg width="40" height="40" viewBox="0 0 40 40" fill="none" xmlns="http://www.w3.org/2000/svg">
<path d="M20.2246 0L23.8529 1.87826L27.892 2.4913L29.7225 6.14347L32.629 9.01303L31.9638 13.0435L32.629 17.0739L29.7225 19.9434L27.892 23.5956L23.8529 24.2087L20.2246 26.0869L16.5964 24.2087L12.5573 23.5956L10.7268 19.9434L7.82031 17.0739L8.48553 13.0435L7.82031 9.01303L10.7268 6.14347L12.5573 2.4913L16.5964 1.87826L20.2246 0Z" fill="#58B9D8"/>
<path d="M11.5312 25.6387V39.9995L20.2269 36.0865L28.9225 39.9995V25.6387L24.5356 26.3039L20.2269 28.5343L15.9182 26.3039L11.5312 25.6387Z" fill="#58B9D8"/>
<path d="M28.2963 10.385C28.2492 10.2462 28.1624 10.1242 28.0467 10.0341C27.931 9.94402 27.7915 9.88978 27.6453 9.87808L23.3695 9.53837L21.5193 5.44317C21.4603 5.31127 21.3645 5.19924 21.2433 5.1206C21.1221 5.04197 20.9807 5.00008 20.8362 5C20.6918 4.99992 20.5503 5.04165 20.4291 5.12016C20.3078 5.19866 20.2118 5.31058 20.1527 5.44242L18.3025 9.53837L14.0267 9.87808C13.8831 9.88946 13.7457 9.94198 13.6311 10.0294C13.5165 10.1167 13.4296 10.2353 13.3806 10.3708C13.3316 10.5063 13.3227 10.6531 13.355 10.7935C13.3872 10.9339 13.4593 11.0621 13.5625 11.1627L16.7222 14.2425L15.6047 19.0809C15.5708 19.2273 15.5817 19.3806 15.6359 19.5208C15.6902 19.661 15.7854 19.7816 15.9091 19.8671C16.0328 19.9525 16.1793 19.9988 16.3297 20C16.48 20.0011 16.6272 19.9571 16.7522 19.8735L20.836 17.1514L24.9198 19.8735C25.0475 19.9583 25.1982 20.002 25.3515 19.9986C25.5048 19.9953 25.6534 19.945 25.7773 19.8547C25.9012 19.7644 25.9945 19.6383 26.0446 19.4934C26.0947 19.3484 26.0992 19.1917 26.0575 19.0441L24.6858 14.2448L28.0878 11.1837C28.3105 10.9827 28.3923 10.6692 28.2963 10.385Z" fill="white"/>
</svg>
