<svg width="150" height="149" viewBox="0 0 150 149" fill="none" xmlns="http://www.w3.org/2000/svg">
<path d="M103.393 71.0362C105.409 72.1878 105.409 75.0946 103.393 76.2462L62.157 99.8007C60.1571 100.943 57.669 99.499 57.669 97.1957V50.0867C57.669 47.7834 60.1571 46.3393 62.157 47.4817L103.393 71.0362Z" fill="white"/>
<path d="M74.2032 1H75.7969V-1H74.2032V1ZM75.7968 147.406H74.2031V149.406H75.7968V147.406ZM74.2031 147.406C33.7742 147.406 1 114.632 1 74.2032H-1C-1 115.737 32.6696 149.406 74.2031 149.406V147.406ZM149 74.2032C149 114.632 116.226 147.406 75.7968 147.406V149.406C117.33 149.406 151 115.737 151 74.2032H149ZM75.7969 1C116.226 1 149 33.7742 149 74.2032H151C151 32.6696 117.33 -1 75.7969 -1V1ZM74.2032 -1C32.6696 -1 -1 32.6696 -1 74.2032H1C1 33.7742 33.7742 1 74.2032 1V-1Z" fill="white"/>
</svg>
